<svg xmlns="http://www.w3.org/2000/svg" xmlns:xlink="http://www.w3.org/1999/xlink" width="855" height="825" xmlns:v="https://vecta.io/nano"><style><![CDATA[.B{fill:#fff}.C{fill:#dfe5ea}.D{fill:#8dc63f}.E{fill:#0d3956}.F{fill:#1b5e92}.G{opacity:.569}.H{mask:url(#U)}]]></style><defs><linearGradient x1="45.0512213%" y1="6.46350337%" x2="50%" y2="50%" id="A"><stop stop-color="#dee2fe" offset="0%"/><stop stop-color="#aee5f2" offset="100%"/></linearGradient><path d="M24.488 0c64.629 44.705 94.335 84.51 89.12 119.414s-17.952 67.54-38.211 97.91C50.2 249.708 52.575 288.48 82.522 333.64s29.947 90.993 0 137.5c-50.588 76.325-43.138 136.706 22.352 181.142S135.406 754.291 0 825h816.21V0H24.488z" id="B"/><path id="C" d="M0 0h12.667v12.676H0z"/><path id="D" d="M0 0h5.846v5.85H0z"/><ellipse id="E" cx="60.986" cy="61.018" rx="60.986" ry="61.018"/><path d="M88.163.092l-4.122 1.587a1.38 1.38 0 0 0-.792 1.779h0l3.095 8.133a1.38 1.38 0 0 1 .091.491h0v12.314a1.38 1.38 0 0 1-.648 1.17h0l-5.822 3.642a1.38 1.38 0 0 0-.595 1.549h0l3.937 13.79a1.38 1.38 0 0 1-.923 1.698h0l-6.879 2.099c-.354.108-.65.354-.82.682h0l-4.107 7.897c-.143.272-.371.49-.65.618h0l-19.892 9.09a1.38 1.38 0 0 0-.806 1.255h0v3.088a1.38 1.38 0 0 1-1.051 1.34h0l-17.056 4.164a1.38 1.38 0 0 0-.972.882h0l-2.27 6.44a1.38 1.38 0 0 1-.921.867h0L1.002 92.09c-1.405.402-1.305 2.431.133 2.686h0c81.938 14.53 318.741-4.996 354.5-8.069h0c1.36-.117 1.737-1.93.537-2.585h0l-6.097-3.329-7.835-4.485c-.13-.074-.272-.127-.418-.156h0l-13.308-2.619a1.38 1.38 0 0 1-.799-.478h0l-9.937-12.109a1.38 1.38 0 0 1-.313-.876h0v-9.201c0-1.384-.94-2.592-2.28-2.932h0l-4.443-1.124a1.36 1.36 0 0 0-.338-.042h0-7.984a1.38 1.38 0 0 1-.974-.404h0a31.56 31.56 0 0 1-7.053-10.779h0l-1.452-3.698a6.83 6.83 0 0 0-4.321-4.026h0a32.55 32.55 0 0 1-7.944-3.724h0l-10.424-6.732a1.44 1.44 0 0 1-.18-.139h0l-5.912-5.38a12.09 12.09 0 0 0-9.618-3.059h0l-20.148 2.482c-2.794.344-5.61.476-8.424.394h0l-43.082-1.256-33.717-2.281c-.179-.012-.358.011-.528.068h0l-9.101 3.036c-.189.063-.39.085-.588.063h0l-15.077-1.677a1.38 1.38 0 0 0-1.478.992h0l-.532 1.863c-.044.155-.061.317-.05.478h0l.423 5.92a1.39 1.39 0 0 0 .142.519h0l4.784 9.579c.096.191.146.402.146.616h0v9.984c0 .176-.033.349-.099.512h0l-.941 2.355c-.508 1.272-2.359 1.104-2.63-.239h0l-1.303-6.463c-.051-.259-.177-.497-.361-.687h0l-2.823-2.914a1.42 1.42 0 0 0-.244-.2h0l-5.664-3.644a1.38 1.38 0 0 1-.632-1.16h0v-8.695c0-.137-.021-.274-.06-.406h0l-3.553-11.557a1.39 1.39 0 0 1-.062-.406h0V3.551a1.38 1.38 0 0 0-1.378-1.379h0a1.38 1.38 0 0 0-1.378 1.379h0v9.969c0 .097-.009.194-.03.289h0l-2.586 12.083a1.38 1.38 0 0 1-.732.944h0l-.169.085a1.38 1.38 0 0 1-1.995-1.234h0v-9.472a1.38 1.38 0 0 0-.577-1.123h0l-5.276-3.772a1.38 1.38 0 0 1-.577-1.122h0V3.485a1.38 1.38 0 0 0-.761-1.234h0L89.274.146A1.38 1.38 0 0 0 88.657 0h0a1.37 1.37 0 0 0-.494.092h0z" id="F"/><linearGradient x1="49.9787325%" y1="100%" x2="49.9787325%" y2="0%" id="G"><stop stop-color="#649b1a" offset="3%"/><stop stop-color="#669d1c" offset="50%"/><stop stop-color="#6da422" offset="70%"/><stop stop-color="#78b12d" offset="85%"/><stop stop-color="#89c23c" offset="98%"/><stop stop-color="#8cc63f" offset="100%"/></linearGradient><linearGradient x1="50%" y1="100%" x2="50%" y2="0%" id="H"><stop stop-color="#72aa27" offset="0%"/><stop stop-color="#6a9720" offset="32%"/><stop stop-color="#668c1b" offset="65%"/><stop stop-color="#64881a" offset="100%"/></linearGradient><linearGradient x1="50.1204819%" y1="0%" x2="50.1204819%" y2="100%" id="I"><stop stop-color="#72aa27" offset="0%"/><stop stop-color="#6a9720" offset="32%"/><stop stop-color="#668c1b" offset="65%"/><stop stop-color="#64881a" offset="100%"/></linearGradient><path id="J" d="M18.276 17.984c-4.026 2.641-7.25 14.675-7.25 19.077V82.38h14.508V37.07c0-4.408-3.23-16.444-7.259-19.086z"/><path id="K" d="M35.69 19.145h0c-4.411 2.267-8.995 12.653-8.995 17.562v42.773h17.99V36.707c0-4.908-4.587-15.295-8.995-17.562z"/><path id="L" d="M28.726 70.197c-.8 0-1.451 1.467-1.451 3.26v7.183h2.902v-7.183c0-1.793-.654-3.26-1.451-3.26z"/></defs><g fill="none" fill-rule="evenodd"><path d="M0 0h855v825H0z" class="B"/><g transform="translate(40)"><mask id="M" class="B"><use xlink:href="#B"/></mask><use fill="url(#A)" xlink:href="#B"/><path fill="#e9e9ff" mask="url(#M)" d="M28.533 513.603l56.624-96.048 522.759-5.055 208.295 18.199V825H.221z"/><g transform="translate(122 89)" class="B"><g transform="translate(375.559 37.213)"><mask id="N"><use xlink:href="#C"/></mask><path d="M6.333 12.676L5.021 9.965a4.08 4.08 0 0 0-1.703-1.796L0 6.338l3.223-1.674a4.08 4.08 0 0 0 1.819-1.898L6.333 0l1.291 2.767a4.08 4.08 0 0 0 1.819 1.898l3.223 1.674L9.348 8.17c-.74.408-1.335 1.036-1.703 1.796l-1.312 2.711zm212.465 112.325l-1.312-2.711a4.08 4.08 0 0 0-1.703-1.796l-3.318-1.831 3.223-1.674a4.08 4.08 0 0 0 1.819-1.898l1.291-2.767 1.291 2.767a4.08 4.08 0 0 0 1.819 1.898l3.223 1.674-3.318 1.831c-.74.408-1.335 1.036-1.703 1.796l-1.312 2.711z" mask="url(#N)"/></g><g opacity=".431" transform="translate(588.023 168.765)"><mask id="O"><use xlink:href="#D" href="#C"/></mask><path d="M6.333 12.676L5.021 9.965c-.368-.761-.963-1.388-1.703-1.796L0 6.338l3.223-1.674a4.08 4.08 0 0 0 1.819-1.898L6.333 0l1.291 2.767a4.08 4.08 0 0 0 1.819 1.898l3.223 1.674-3.318 1.831c-.74.408-1.335 1.036-1.703 1.796l-1.312 2.711z" mask="url(#O)"/></g><g opacity=".431" transform="translate(132.742 138.407)"><mask id="P"><use xlink:href="#E" href="#C"/></mask><path d="M6.333 12.676L5.021 9.965a4.08 4.08 0 0 0-1.703-1.796L0 6.338l3.223-1.674a4.08 4.08 0 0 0 1.819-1.898L6.333 0l1.291 2.767a4.08 4.08 0 0 0 1.819 1.898l3.223 1.674L9.348 8.17c-.74.408-1.335 1.036-1.703 1.796l-1.312 2.711zm212.465 112.325l-1.312-2.711a4.08 4.08 0 0 0-1.703-1.796l-3.318-1.831 3.223-1.674a4.08 4.08 0 0 0 1.819-1.898l1.291-2.767 1.291 2.767a4.08 4.08 0 0 0 1.819 1.898l3.223 1.674-3.318 1.831c-.74.408-1.335 1.036-1.703 1.796l-1.312 2.711z" mask="url(#P)"/></g><ellipse cx="89.489" cy="90.769" rx="1.462" ry="1.463"/><ellipse cx="143.719" cy="265.709" rx="1.462" ry="1.463"/><g transform="translate(534.929 258.396)"><mask id="Q"><use xlink:href="#D"/></mask><path d="M2.923 5.85l-.605-1.251c-.17-.351-.445-.641-.786-.829L0 2.925l1.488-.772c.369-.191.664-.499.84-.876L2.923 0l.596 1.277c.176.377.471.684.84.876l1.488.772-1.532.845c-.341.188-.616.478-.786.829L2.923 5.85z" mask="url(#Q)"/></g><g transform="translate(610.93)"><mask id="R"><use xlink:href="#G" href="#D"/></mask><path d="M2.923 5.85l-.605-1.251c-.17-.351-.445-.641-.786-.829L0 2.925l1.488-.772c.369-.191.664-.499.84-.876L2.923 0l.596 1.277c.176.377.471.684.84.876l1.488.772-1.532.845c-.341.188-.616.478-.786.829L2.923 5.85z" mask="url(#R)"/></g><g transform="translate(0 175.514)"><mask id="S"><use xlink:href="#H" href="#D"/></mask><path d="M2.923 5.85l-.605-1.251c-.17-.351-.445-.641-.786-.829L0 2.925l1.488-.772c.369-.191.664-.499.84-.876L2.923 0l.596 1.277c.176.377.471.684.84.876l1.488.772-1.532.845c-.341.188-.616.478-.786.829L2.923 5.85z" mask="url(#S)"/></g><ellipse cx="521.775" cy="311.537" rx="1.462" ry="1.463"/><ellipse cx="157.361" cy="52.167" rx="1.462" ry="1.463"/><circle cx="553.012" cy="274.891" r="1"/></g><ellipse cx="235.594" cy="111.599" rx="10.594" ry="10.599" class="B"/><path d="M241.727 119.884l-.021.016c-1.763 1.437-4.013 2.298-6.464 2.298-5.657 0-10.242-4.588-10.242-10.248a10.21 10.21 0 0 1 2.314-6.488c1.282 7.345 7.073 13.139 14.414 14.421z" fill="#d0d0d0" opacity=".674"/><g fill="#e0e0e0"><ellipse cx="235.594" cy="105.818" rx="1.926" ry="1.927" class="G"/><ellipse cx="238.483" cy="112.563" rx="1.926" ry="1.927" class="G"/></g><g transform="matrix(.965926 -.258819 .258819 .965926 113.10991 275.875394)"><mask id="T" class="B"><use xlink:href="#E"/></mask><use fill="#939fff" xlink:href="#E"/><g mask="url(#T)"><g transform="translate(-25.416 -16.95)"><g fill="#bbc3ff"><path d="M37.604 18.294c9.916 10.198 20.838 15.707 35.61 14.055 6.896-.772 12.021-4.713 19.26-2.642 30.67 8.776 6.722 8.244 32.981 10.196 4.095.304 8.289.791 12.318 0 3.731-.732 7.559-6.898 10.492-4.477 4.26 3.516 6.999 11.759 3.666 16.165-5.468 7.228-18.227-1.755-24.059-2.898-8.685-1.703-16.879 6.829-24.787 3.425-7.497-3.228-14.318-13.573-24.264-10.923-24.8 6.607-7.734 10.947-38.679 14.376-6.276.695-21.395 6.313-18.937.493l-5.952-2.571c50.376-119.301 8.017 3.625 20.524-33.262l1.828-1.937zM16.099 73.271C34.9 76.835 46.317 68.39 63.822 61.83c12.117-4.54 20.356 1.725 32.068 3.125 13.095 1.566 7.016-2.84 18.014-5.931 9.121-2.563 21.778 4.614 28.829 5.775 4.333.713 8.985-1.778 13.165-.434 1.576.507-2.078 2.662-3.476 3.55-2.343 1.489-4.8 3.643-7.57 3.471-4.574-.283-8.47-3.587-12.906-4.739-1.373-.356-2.926-.235-4.245.286-4.583 1.81-8.968 4.124-13.222 6.611-2.297 1.343-3.738 4.352-6.354 4.835-4.377.808-9.126.343-13.299-1.205-6.13-2.273-10.971-7.193-16.881-9.988-2.062-.975-4.657-2.112-6.74-1.182-4.605 2.056-7.633 6.632-11.807 9.463-2.803 1.901-6.241 2.738-9.026 4.664-3.48 2.407-6.105 5.934-9.646 8.25-4.514 2.951-9.265 5.686-14.361 7.447-2.266.783-6.198 2.183-7.193 0-2.869-6.295-1.475-13.758-2.212-20.637l-.86-1.922zm10.164 33.991c13.826-.36 23.967.341 36.25-5.73 13.617-6.73 26.708-18.62 43.039-16.544 11.987 1.524 18.294 13.199 31.555 11.865 5.498-.553 13.892-7.661 16.355-2.711 3.145 6.322-1.519 16.691-7.931 19.643-6.255 2.879-12.736-5.385-19.415-7.056-2.84-.711-5.938-.689-8.783 0-2.906.704-5.077 3.424-7.997 4.065-7.939 1.743-14.011-5.288-22.024-2.561-26.538 9.033-21.652 14.487-46.247 10.726-1.801-.275-4.364 1.602-5.464.149l-3.76 1.776c-2.497-3.3-2.555-7.873-3.833-11.81l-1.744-1.811zm24.564 29.379c22.125-22.384 55.15-6.569 81.822-9.173 4.814-.47 10.119-6.713 13.999-3.824 3.086 2.298-5.046 5.893-8.129 8.195s-6.471 4.368-10.156 5.456c-14.936 4.407-29.114-11.049-44.801-5.76-5.751 1.939-9.248 8.042-14.643 10.824-2.695 1.39-5.983 1.73-8.993 1.364-2.685-.327-5.478-1.443-7.388-3.358-1.283-1.286-.834-3.537-1.251-5.305"/></g><path d="M130.466 128.286l-.307.25a70.23 70.23 0 0 1-44.247 15.605c-38.965 0-70.552-31.604-70.552-70.59 0-16.194 5.45-31.115 14.616-43.026 9.797 50.104 49.936 89.337 100.491 97.76z" fill-opacity=".45" fill="#4450a5" transform="matrix(.945519 .325568 -.325568 .945519 32.405323 -18.979931)"/></g></g></g><g transform="matrix(.999848 .017452 -.017452 .999848 129.610712 330.533004)"><mask id="U" class="B"><use xlink:href="#F"/></mask><path fill="#e9e9ff" d="M-7.068 121.341h369.026V-20.203H-7.068z" class="H"/><g fill="#c7c7f0" class="H"><path d="M326.28 67.165l-7.192 1.651c-1.051.167-1.918-.305-2.868-.638-.956-.335-1.949-.529-2.967-.622-2.032-.187-3.985.194-5.858.903-.975.37-1.952.816-2.996 1-1.233.219-2.361-.129-3.549-.392-4.522-1.003-8.915.155-13.425.556-4.693.417-9.444-.397-14.144-.476-5.551-.093-11.098.216-16.636.525-.298.017-.54.108-.734.242-.04-.008-.078-.02-.121-.025a76.61 76.61 0 0 0-11.363-.45 1.32 1.32 0 0 0-.388.074l-3.156-.028c-2.058-.018-4.126-.088-6.182.003-1.002.045-2.005.139-2.989.315-.491.087-.981.218-1.481.255-.479.035-.911-.036-1.363-.179-.871-.275-1.675-.666-2.584-.84-.966-.185-1.958-.225-2.942-.217-2.308.018-4.617.106-6.923.162-.946.023-.95 1.372 0 1.349l6.18-.149c.941-.022 1.899-.043 2.834.082.955.127 1.796.469 2.684.791.952.346 1.865.42 2.874.258s1.985-.366 3.01-.437c2.019-.14 4.054-.068 6.076-.05l1.634.014c.129.21.368.369.638.352l1.099-.069c.176.287.503.49.981.473a76.61 76.61 0 0 1 11.363.45 1.25 1.25 0 0 0 .342-.009c.15.047.319.073.513.062 4.966-.277 9.937-.554 14.915-.541 4.834.013 9.695.79 14.519.584 4.581-.195 9.236-1.761 13.813-.79 2.149.456 3.987.869 6.146.207 2.106-.646 3.947-1.645 6.236-1.628 2.354.019 4.376 1.535 6.694 1.346 2.67-.217 5.421-1.175 8.018-1.773 1.655-.381.954-2.723-.705-2.341m-289.266 2.36l5.508 1.651c.804.167 1.468-.305 2.196-.638s1.493-.529 2.272-.623c1.556-.186 3.053.194 4.486.904.746.37 1.495.816 2.295 1.001.944.218 1.807-.129 2.716-.393 3.464-1.003 6.827.156 10.282.557 3.594.416 7.231-.397 10.83-.476 4.251-.094 8.499.216 12.74.525a.92.92 0 0 1 .562.242c.031-.008.06-.021.092-.025a45.07 45.07 0 0 1 8.702-.449.81.81 0 0 1 .297.074l2.417-.028c1.576-.018 3.159-.088 4.734.004.767.045 1.534.139 2.289.314.375.088.751.219 1.134.255.367.035.697-.036 1.044-.179.667-.274 1.283-.666 1.979-.84.74-.184 1.499-.225 2.253-.217 1.766.018 3.534.106 5.301.162.725.023.727 1.372 0 1.349l-4.732-.149c-.721-.021-1.454-.042-2.17.081-.732.127-1.375.47-2.055.792a3.31 3.31 0 0 1-2.201.258c-.771-.162-1.52-.365-2.304-.437-1.547-.141-3.105-.069-4.654-.05l-1.251.014c-.098.21-.281.369-.488.352l-.842-.069c-.135.287-.385.49-.751.473a45.07 45.07 0 0 0-8.702.449.73.73 0 0 1-.262-.008.85.85 0 0 1-.392.062c-3.804-.277-7.61-.555-11.422-.542-3.702.013-7.424.79-11.118.584-3.509-.195-7.072-1.761-10.578-.79-1.646.456-3.054.868-4.707.207-1.612-.645-3.022-1.645-4.775-1.627-1.802.018-3.35 1.535-5.125 1.345-2.045-.217-4.152-1.175-6.141-1.772-1.267-.381-.73-2.723.54-2.341m-10.162 8.992v6.327s15.539-4.001 24.883 0 25.536-.186 32.599.652 26.514-1.396 26.514-1.396 4.89-1.396 9.019 0 18.185-2.512 18.185-2.512-8.731.651-12.426 1.396-6.302-3.443-12.604-2.42-1.413 1.854-12.713 1.997-4.129-1.811-11.953-1.253-10.649 3.722-23.58 2.792-4.998-3.164-16.843-4.931-6.52 2.605-14.126 1.302-6.954-1.954-6.954-1.954M325.68 63.783l.084-3.614s-10.22 2.1-16.28-.296-16.709-.197-21.318-.76-17.365.481-17.365.481-3.217.739-5.9-.107-11.93 1.218-11.93 1.218 5.72-.268 8.147-.649 4.078 2.042 8.215 1.532.948-1.043 8.344-.99 2.678 1.083 7.804.858 7.016-1.999 15.463-1.314 3.229 1.866 10.954 3.017 4.3-1.411 9.259-.576 4.524 1.199 4.524 1.199M136.296 6.449l2.722 12.277-2.722 4.464 1.362 7.813s-4.839 14.272-13.444 10.764l1.739-5.742-4.201-11.639-3.966-14.867L123.503.87l12.793 5.58zM104.647.34v10.581l-4.127 16.11s-.559 4.079 2.063 3.522 3.88-6.266 3.88-6.266l2.095-1.114v-3.202l-1.677-.418.14-2.645 1.537-.557v-2.924l-.559-2.924-.559-1.531-.419-2.506.419-2.228.261-1.519.857-4.467-4.61 2.088h.698zM88.256-1.43l-1.557 5.928 1.557 5.653 4.246 5.377-1.557 5.79-1.981 2.068 4.388 1.654-2.689.827h-3.964l-7.502-1.792 1.275-18.199 4.67-7.307zm-6.377 28.384l1.371 5.171 3.355 3.074 1.113 3.075-.557 5.189-5.283 3.712-3.388-3.032-1.894-14.254z"/><path d="M74.461 46.356l2.393 4.265-.562 4.87-4.646 1.986h-5.913zM58.898 58.865l-3.939 12.938-1.493 1.216-5.84-.715-6.926-5.433 11.408-5.147zM35.832 72.958l-1.136 7.296-3.926 2.199-5.048-1.216v-9.906zm184.234-42.302l-2.415-1.268-4.515-.536-4.201-.857-3.256.643c-.525.214-6.546-.107-6.546-.107l-5.845.795-4.621-.474c-.315 0-5.67.474-5.67.474l-4.193 1.063h-5.801-.454l5.251 1.331 5.671.473c.315 0 4.621-.473 4.621-.473l5.845.795 6.546-.108c.525.214 3.256.643 3.256.643l4.2-.858 4.515-.536 1.905-1h5.709zm-5.192-8.174l1.079-.507 2.017-.215 1.877-.342 1.455.257c.234.085 2.925-.043 2.925-.043l2.612.318 2.064-.19a204.21 204.21 0 0 1 2.534.19l1.873.425h2.593.202l-2.346.532-2.534.19c-.14 0-2.064-.19-2.064-.19l-2.612.318-2.925-.042c-.234.085-1.454.257-1.454.257l-1.878-.343-2.017-.215-.851-.4h-2.55z"/></g><path d="M199.568 72.56l-1.079.508-2.017.214-1.877.343-1.455-.257c-.234-.086-2.925.042-2.925.042l-2.612-.318-2.065.19c-.14 0-2.534-.19-2.534-.19l-1.873-.425h-2.593-.202l2.346-.532 2.534-.189c.14 0 2.064.189 2.064.189l2.612-.318 2.925.043c.235-.086 1.455-.257 1.455-.257l1.878.343 2.017.214.851.4h2.55z" fill="#ededff" class="H"/><path d="M111.608 73.178l2.415-1.268 4.515-.536 4.201-.857 3.256.643c.525.214 6.546-.107 6.546-.107l5.845.795 4.621-.474c.315 0 5.67.474 5.67.474l4.193 1.063h5.801.454l-5.251 1.331-5.67.473c-.315 0-4.621-.473-4.621-.473l-5.845.795-6.546-.108c-.525.214-3.256.643-3.256.643l-4.2-.858-4.516-.536-1.905-1h-5.709z" fill="#c7c7f0" class="H"/></g><g transform="translate(549.435 340)"><g fill="#d5d6ec"><path d="M123.701 90.919c1.956-6.807-2.001-13.91-8.838-15.867a13.04 13.04 0 0 0-.706-.18 12.86 12.86 0 0 0-9.312-11.579c-1.481-.424-2.976-.571-4.429-.472-.669-4.887-4.151-9.165-9.217-10.615-4.805-1.375-9.752.162-12.947 3.558-.433-.176-.878-.333-1.338-.465-5.856-1.676-11.922.971-14.771 6.041l-.331-.104c-6.836-1.957-13.964 1.975-15.919 8.782-1.41 4.906.253 9.966 3.851 13.142 5.078 6.964 15.566 13.619 28.608 17.351 14.28 4.087 27.823 3.583 35.629-.585 4.514-.947 8.363-4.284 9.72-9.008" opacity=".399"/><path d="M7.788 90.919c-1.956-6.807 2.001-13.91 8.838-15.867a13.04 13.04 0 0 1 .706-.18 12.86 12.86 0 0 1 9.312-11.579c1.481-.424 2.976-.571 4.429-.472.669-4.887 4.151-9.165 9.217-10.615 4.805-1.375 9.752.162 12.947 3.558.433-.176.878-.333 1.338-.465 5.856-1.676 11.922.971 14.771 6.041l.331-.104c6.836-1.957 13.964 1.975 15.919 8.782 1.41 4.906-.253 9.966-3.851 13.142-5.078 6.964-15.566 13.619-28.608 17.351-14.28 4.087-27.823 3.583-35.629-.585-4.514-.947-8.363-4.284-9.72-9.008" opacity=".399"/></g><ellipse fill="#ddf" opacity=".795" cx="65.061" cy="96.865" rx="52.397" ry="9.081"/><g transform="translate(29.002)" fill-rule="nonzero"><path d="M58.614 64.976s12.767 19.917 12.767 33.648h-3.563s1.039-13.282-9.204-13.282V64.976zm-45.847 0S0 84.893 0 98.624h3.563s-1.039-13.282 9.204-13.282V64.976z" class="D"/><path d="M35.396 0h0C30.28 2.652 24.954 14.732 24.954 20.436v49.761h20.892V20.436c0-5.713-5.332-17.799-10.45-20.436z" fill="url(#G)"/><path d="M35.69 0h0c-4.122 2.652-8.415 14.732-8.415 20.436v49.761h16.83V20.436c0-5.713-4.293-17.799-8.415-20.436z" class="D"/><path d="M35.69 0h0c-2.131 2.652-4.352 14.732-4.352 20.436v49.761h8.705V20.436c0-5.713-2.221-17.799-4.352-20.436z" fill="url(#H)"/><path d="M24.954 23.206h20.892V41.19H24.954z" class="D"/><path d="M12.767 84.701h9.866v4.641h-9.866z" class="E"/><path d="M12.187 81.22h11.607v4.641H12.187z" class="F"/><path d="M48.748 84.701h9.866v4.641h-9.866z" class="E"/><path d="M47.587 81.22h11.607v4.641H47.587z" class="F"/><use xlink:href="#J" class="C"/><use xlink:href="#J" fill="#c2ccd3"/><path d="M18.286 17.984c-2.099 2.642-3.778 14.676-3.778 19.078v22.692l7.544-10.173v-12.51c0-4.409-1.67-16.446-3.766-19.087z" class="C"/><path d="M53.1 17.984c-4.03 2.641-7.254 14.675-7.254 19.077V82.38h14.508V37.07c0-4.408-3.224-16.444-7.254-19.086z" fill="#c2ccd3"/><path d="M53.099 17.984c-2.094 2.642-3.771 14.676-3.771 19.078v12.51l7.544 10.182V37.072c0-4.409-1.677-16.446-3.774-19.087z" class="C"/><path d="M11.026 36.549h14.508v1.16H11.026zm0 27.847h14.508v1.16H11.026zm0 15.083h14.508v1.16H11.026zm34.82-42.93h14.508v1.16H45.846zm0 27.847h14.508v1.16H45.846zm0 15.083h14.508v1.16H45.846z" class="E"/><path d="M44.653 38.869H26.725c.001 10.002-3.984 19.583-11.056 26.585h0v6.36l7.991 1.977c1.8.446 3.066 2.076 3.065 3.948h17.928c0-1.873 1.267-3.503 3.068-3.948l7.991-1.977v-6.36h0c-7.073-7.001-11.059-16.583-11.059-26.585h0z" class="B"/><path d="M55.712 67.366h0c-7.073-6.905-11.059-16.354-11.059-26.217v-4.442c0-4.908-4.571-15.295-8.964-17.562h0c-4.395 2.267-8.964 12.653-8.964 17.562v4.442c.001 9.864-3.984 19.312-11.056 26.217h0v6.268l7.991 1.952a4.01 4.01 0 0 1 3.065 3.893h17.928c-.001-1.847 1.266-3.455 3.068-3.893l7.991-1.952v-6.268z" class="C"/><path d="M15.669 72.518v1.625l7.991 1.976a4.05 4.05 0 0 1 3.065 3.941h17.928c-.001-1.87 1.266-3.498 3.068-3.941l7.991-1.976v-1.625H15.669z" fill="#88b541"/><g fill="url(#H)"><path d="M20.312 75.102l1.741.317v-2.901h-1.741z"/><path d="M49.328 75.418l1.741-.317v-2.584h-1.741z"/></g><g class="B"><use xlink:href="#K"/><use xlink:href="#K"/></g><path d="M35.399 19.145h0c-3.98 2.267-8.123 12.653-8.123 17.562v42.773h16.249V36.707c0-4.908-4.144-15.295-8.126-17.562z" class="C"/><path d="M35.687 19.145h0c-2.983 2.267-6.09 12.653-6.09 17.562v42.773h12.187V36.707c0-4.908-3.11-15.295-6.097-17.562z" class="B"/><path d="M29.597 26.686h12.187c-1.721-3.668-3.945-6.923-6.097-8.122h0c-2.164 1.199-4.373 4.454-6.09 8.122z" class="E"/><path d="M31.918 26.686h6.964c-.984-3.668-2.244-6.923-3.483-8.122h0c-1.236 1.199-2.5 4.454-3.481 8.122z" class="F"/><path d="M19.151 66.136h4.643v2.901h-4.643zm28.436 0h4.643v2.901h-4.643z" class="B"/><path d="M35.981 30.747v3.449a3.43 3.43 0 0 1 1.536.612l2.526-2.439a7.03 7.03 0 0 0-4.062-1.622h0zm-.581 0c-1.501.099-2.928.669-4.062 1.622l2.528 2.439a3.44 3.44 0 0 1 1.535-.612v-3.449zm5.326 2.321l-2.424 2.576c.422.595.651 1.32.65 2.065h3.412c.001-1.707-.582-3.356-1.639-4.641zm-10.648 0c-1.059 1.284-1.642 2.934-1.642 4.641h3.412c0-.745.228-1.47.65-2.065l-2.421-2.576z" class="F"/><path d="M32.499 80.059v-5.985c-.003-1.465-.696-2.836-1.854-3.667s-2.634-1.019-3.95-.502v2.558c.623-.639 1.553-.826 2.359-.474s1.33 1.174 1.329 2.085v5.985h2.115zm7.92 0v-5.981c-.003-.91.521-1.732 1.327-2.085s1.737-.165 2.36.475v-2.556c-1.316-.525-2.797-.341-3.957.492s-1.851 2.208-1.846 3.674v5.981h2.117z" class="C"/><path d="M35.399 81.8h0c-.32-.002-.579-.284-.579-.631V69.665c0-.347.259-.628.579-.628h0c.32 0 .58.281.582.628v11.503c0 .349-.26.631-.582.631z" fill="url(#I)"/><path d="M26.695 80.64h4.643v1.74h-4.643z" class="E"/><path d="M26.115 79.479h5.223v1.74h-5.223z" class="F"/><path d="M29.018 70.197c-1.922.005-3.478 1.461-3.484 3.26v7.183h6.964v-7.183c-.005-1.797-1.56-3.253-3.48-3.26h0z" class="B"/><path d="M28.726 70.197c-1.437 0-2.611 1.467-2.611 3.26v7.183h5.223v-7.183c0-1.793-1.177-3.26-2.611-3.26z" class="C"/><g class="B"><use xlink:href="#L"/><use xlink:href="#L"/></g><path d="M40.043 80.64h4.643v1.74h-4.643z" class="E"/><path d="M40.043 79.479h5.223v1.74h-5.223z" class="F"/><path d="M42.363 70.197c-1.921.006-3.475 1.462-3.48 3.26v7.183h6.964v-7.183c-.005-1.798-1.562-3.255-3.484-3.26h0z" class="B"/><path d="M42.654 70.197c-1.434 0-2.611 1.467-2.611 3.26v7.183h5.223v-7.183c0-1.793-1.174-3.26-2.611-3.26z" class="C"/><path d="M42.654 70.197c-.797 0-1.451 1.467-1.451 3.26v7.183h2.902v-7.183c0-1.793-.654-3.26-1.451-3.26z" class="B"/><path d="M31.918 42.35h2.321v5.801h-2.321zm5.223 0h2.321v5.801h-2.321z" class="C"/><g transform="matrix(.999848 .017452 -.017452 .999848 31.279218 49.578067)"><ellipse cx="4.739" cy="4.746" rx="4.739" ry="4.746" class="B"/><g class="D"><path d="M2.837 4.734h-.142c-.043-.007-.076-.04-.083-.083h0v-.54c.007-.043.04-.076.083-.083h.142v.706z"/><path d="M3.234 4.817h-.225c-.045-.005-.081-.039-.089-.083h0v-.676c.003-.047.042-.083.089-.083h.225v.842zm3.43-.083h.142c.043-.005.078-.04.083-.083h0v-.54c-.005-.044-.039-.078-.083-.083h-.142v.706z"/><path d="M6.249 4.817h.225c.045-.003.08-.038.083-.083h0v-.676c0-.046-.037-.083-.083-.083h-.225v.842zM4.194 6.306h1.125v1H4.194z"/><path d="M4.668 1.839h1v1h-1zM3.181 3.915h3.116v2.391H3.181z"/><ellipse cx="4.756" cy="3.975" rx="1.57" ry="1.436"/></g><g fill="#333"><circle cx="3.886" cy="4.336" r="1"/><circle cx="5.621" cy="4.336" r="1"/></g><circle cx="4.756" cy="1.643" r="1" class="D"/><path d="M4.756 5.885c-.3-.003-.597-.062-.877-.172-.074-.028-.134-.084-.166-.157s-.034-.155-.005-.229h0c.072-.147.242-.218.397-.166h0c.422.168.893.168 1.315 0a.29.29 0 0 1 .397.166c.034.074.035.16.003.235s-.096.132-.174.157a2.27 2.27 0 0 1-.889.166z" class="B"/><path d="M4.052 4.87v1.186l-.059-.03h-.059V4.87h.118 0zm.421 0h-.059v1.186h.059l.083.03V4.9l-.083-.03zm.503 0h0v1.186h.059l.083.03V4.9l-.142-.03zm.48 0h-.059v1.186h.059l.083.03V4.9l-.083-.03zm1.853 2.166H2.168c-.036.013-.061.045-.065.083h0v.706a4.08 4.08 0 0 0 5.278 0v-.706c-.018-.053-.047-.053-.071-.083z" class="D"/><g class="B"><circle cx="5.598" cy="7.487" r="1"/><circle cx="6.154" cy="7.487" r="1"/></g><circle fill="#333" cx="6.688" cy="7.487" r="1"/><path d="M4.756 8.815C2.489 8.822.645 7.036.634 4.766S2.45.644 4.717.629 8.836 2.44 8.855 4.71c0 2.26-1.824 4.095-4.081 4.105h-.018zm0-7.765a3.71 3.71 0 0 0-3.431 2.29 3.72 3.72 0 0 0 .803 4.05c1.061 1.063 2.658 1.38 4.044.804s2.289-1.933 2.286-3.436h0A3.74 3.74 0 0 0 4.756 1.05z" class="D"/></g></g></g><ellipse fill="#8390fa" cx="122.81" cy="135.5" rx="24.277" ry="24.5"/><path d="M138.881 154.368l-.147.121c-4.238 3.448-9.627 5.512-15.495 5.512-13.645 0-24.706-11.163-24.706-24.933a24.97 24.97 0 0 1 5.581-15.786c3.092 17.87 17.06 31.966 34.767 35.086z" fill="#6b78e0" opacity=".32"/><path d="M98.393 136.143v3.463c-9.202 5.957-8.322 8.936 2.639 8.936 16.442 0 35.728-4.044 45.9-10.247s8.036-9.248-.8-9.912l-.996-2.889c23.527 1.399 24.448 6.57 2.762 15.514s-41.977 11.901-60.874 8.871c-4.356-2.201-4.687-4.463-.993-6.787s7.815-4.64 12.362-6.948z" fill="#a0c1e7"/><g fill="#6a77e2"><ellipse cx="127.885" cy="121.29" rx="1.464" ry="1.47" class="G"/><ellipse cx="120.079" cy="132.07" rx="1.464" ry="1.47" class="G"/><ellipse cx="133.739" cy="126.19" rx="2.439" ry="2.45" class="G"/></g></g></g></svg>