<svg xmlns="http://www.w3.org/2000/svg" xmlns:xlink="http://www.w3.org/1999/xlink" width="771" height="470" xmlns:v="https://vecta.io/nano"><defs><linearGradient x1="55.5720127%" y1="59.5099189%" x2="16.110958%" y2="39.8695157%" id="A"><stop stop-color="#cec3d1" offset="0%"/><stop stop-color="#fdefff" offset="100%"/></linearGradient><ellipse id="B" cx="102.069" cy="102.598" rx="102.069" ry="102.598"/><path d="M103.36 4.38L98.6 6.21a1.59 1.59 0 0 0-.914 2.052h0l3.573 9.38a1.59 1.59 0 0 1 .104.567h0V32.41a1.59 1.59 0 0 1-.748 1.35h0l-6.72 4.2a1.59 1.59 0 0 0-.687 1.787h0l4.545 15.906a1.59 1.59 0 0 1-1.065 1.959h0l-7.94 2.42a1.59 1.59 0 0 0-.947.787h0l-4.74 9.11a1.6 1.6 0 0 1-.75.713h0L59.344 81.126a1.59 1.59 0 0 0-.93 1.447h0v3.562a1.59 1.59 0 0 1-1.213 1.546h0l-19.7 4.802a1.59 1.59 0 0 0-1.123 1.017h0l-2.62 7.428c-.172.486-.57.86-1.063 1h0L2.737 110.5c-1.623.464-1.507 2.804.154 3.098h0c94.594 16.76 367.972-5.76 409.254-9.304h0c1.57-.135 2.005-2.226.62-2.982h0l-7.04-3.84-9.046-5.173a1.63 1.63 0 0 0-.482-.18h0l-15.364-3.02a1.59 1.59 0 0 1-.923-.551h0L368.44 74.57a1.59 1.59 0 0 1-.361-1.01h0V62.946a3.49 3.49 0 0 0-2.633-3.381h0l-5.13-1.296a1.57 1.57 0 0 0-.391-.048h0-9.218c-.422 0-.826-.168-1.125-.466h0a36.4 36.4 0 0 1-8.142-12.433h0l-1.676-4.266c-.873-2.224-2.708-3.932-4.988-4.644h0c-3.237-1.01-6.322-2.457-9.17-4.295h0l-12.034-7.765a1.58 1.58 0 0 1-.208-.16h0l-6.825-6.205a13.96 13.96 0 0 0-11.104-3.53h0l-23.26 2.863a64.27 64.27 0 0 1-9.725.454h0l-49.736-1.45-38.925-2.63a1.59 1.59 0 0 0-.61.078h0l-10.507 3.502a1.59 1.59 0 0 1-.679.072h0L144.6 15.412a1.59 1.59 0 0 0-1.706 1.144h0l-.614 2.15a1.6 1.6 0 0 0-.057.551h0l.488 6.828a1.6 1.6 0 0 0 .164.598h0l5.523 11.048a1.59 1.59 0 0 1 .168.71h0v11.515c0 .203-.038.403-.114.59h0l-1.086 2.717c-.587 1.468-2.723 1.274-3.036-.276h0l-1.504-7.454c-.06-.3-.205-.574-.417-.793h0l-3.26-3.362a1.64 1.64 0 0 0-.282-.231h0l-6.54-4.204a1.59 1.59 0 0 1-.73-1.338h0V25.58a1.63 1.63 0 0 0-.07-.469h0l-4.1-13.33a1.6 1.6 0 0 1-.071-.469h0V8.37a1.59 1.59 0 0 0-1.59-1.591h0a1.59 1.59 0 0 0-1.591 1.591h0v11.498a1.56 1.56 0 0 1-.035.333h0l-2.985 13.936a1.59 1.59 0 0 1-.845 1.089h0l-.195.098c-1.058.53-2.303-.24-2.303-1.423h0V22.977a1.59 1.59 0 0 0-.666-1.295h0l-6.09-4.35a1.59 1.59 0 0 1-.667-1.294h0V8.292a1.59 1.59 0 0 0-.879-1.423h0l-4.856-2.428a1.61 1.61 0 0 0-.712-.168h0a1.58 1.58 0 0 0-.57.106h0z" id="C"/><path d="M18.134.07l-3.04 3.88-3.272 2s.7-.453-1.402-.453h0c-2.103 0-4.908.453-4.908.453h0v1.14l-.234 1.8-2.57 3.1s-.468-.6-1.402.984h0C.37 14.56.136 16.823.136 16.823h0s44.176 9.28 99.805 0h0v-5.658l-4.207-1.8-1.402-1.417-.467-2.43s.467-2.2-1.402-1.558h0c-1.87.653-3.988 0-3.988 0h0L86.62 2.576 85.45.07H18.134z" id="D"/><linearGradient x1="50%" y1="0.401277637%" x2="50%" y2="69.4228636%" id="E"><stop stop-color="#f0c7e8" offset="0%"/><stop stop-color="#fdf5ff" offset="100%"/></linearGradient><radialGradient cx="50%" cy="157.010988%" fx="50%" fy="157.010988%" r="192.067861%" gradientTransform="translate(0.500000,1.570110),scale(0.113735,1.000000),rotate(90.000000),scale(1.000000,4.375246),translate(-0.500000,-1.570110)" id="F"><stop stop-color="#dcbce3" offset=".00527871622%"/><stop stop-color="#ddbee4" offset="44.6737753%"/><stop stop-color="#ddbce3" offset="100%"/></radialGradient><path d="M40.076.154L33.36 8.65l-7.232 4.404s1.55-.99-3.1-.99h0c-4.65 0-10.847.99-10.847.99h0v2.48l-.517 3.965-5.682 6.768s-1.033-1.315-3.1 2.155h0C.818 31.892.3 36.85.3 36.85h0s97.63 20.325 220.57 0h0V24.456l-9.298-3.966-3.1-3.104-1.033-5.323s1.033-4.842-3.1-3.412h0c-4.132 1.43-8.814 0-8.814 0h0l-4.1-3.032-2.583-5.465H40.076z" id="G"/><radialGradient cx="50%" cy="157.010988%" fx="50%" fy="157.010988%" r="192.067861%" gradientTransform="translate(0.500000,1.570110),scale(0.120603,1.000000),rotate(90.000000),scale(1.000000,4.375246),translate(-0.500000,-1.570110)" id="H"><stop stop-color="#c992cf" offset=".00527871622%"/><stop stop-color="#ddbee4" offset="44.6737753%"/><stop stop-color="#dbb8e1" offset="100%"/></radialGradient></defs><g fill="none" fill-rule="evenodd"><path d="M610.558-141.053V628.75H234.822c-76.127-30.554-94.443-90.472-54.95-179.755 59.24-133.924 37.708-140.868 15.627-194.868S140.84 133.9 192.8 63.714c50.107-67.69-14.462-203.41-13.696-203.41l431.455-1.357z" fill="url(#A)" transform="matrix(0 1 1 0 141.24955 -141.24955)"/><path d="M385 275.796c309.244-10.636 380.825-14.335 384 21.182.385 4.304.477 19.163.443 35.818h.057v135l-768 1-.292-79.03-.362-.018c-.005 0-.045-22.256-.054-46.295v-15.72L1 284.55c111.4-5.722-26.79 5.374 384-8.755z" fill="#fdf5ff"/><g transform="matrix(.965926 -.258819 .258819 .965926 489.489257 53.502379)"><mask id="I" fill="#fff"><use xlink:href="#B"/></mask><use fill="#f8b9ff" xlink:href="#B"/><g mask="url(#I)"><g transform="translate(-42.703 -28.5)"><path d="M63.1 30.76c16.595 17.147 34.875 26.41 59.598 23.632 11.542-1.298 20.118-7.925 32.234-4.442 51.33 14.757 11.25 13.862 55.2 17.144 6.853.512 13.873 1.33 20.616 0 6.244-1.23 12.65-11.6 17.56-7.528 7.13 5.913 11.714 19.773 6.136 27.18-9.152 12.154-30.506-2.95-40.267-4.873-14.535-2.864-28.25 11.483-41.485 5.758-12.547-5.427-23.963-22.822-40.6-18.366-41.506 11.1-12.944 18.408-64.734 24.172-10.504 1.17-35.807 10.615-31.694.83l-9.962-4.322c84.31-200.598 13.417 6.095 34.35-55.928l3.06-3.256z" fill="#c992cf"/><path d="M27.11 123.2c31.467 5.993 50.574-8.208 79.87-19.237 20.28-7.634 34.07 2.9 53.67 5.255 21.917 2.633 11.742-4.776 30.15-9.972 15.265-4.31 36.45 7.758 48.25 9.7 7.25 1.2 15.038-3 22.034-.73 2.638.853-3.478 4.476-5.817 5.97-3.92 2.504-8.033 6.125-12.67 5.836-7.655-.476-14.176-6.032-21.6-7.968-2.298-.6-4.897-.394-7.105.48-7.67 3.043-15.01 6.934-22.128 11.116-3.845 2.26-6.255 7.317-10.635 8.13-7.326 1.36-15.273.577-22.258-2.026-10.26-3.822-18.36-12.094-28.253-16.794-3.45-1.64-7.794-3.55-11.28-1.987-7.707 3.457-12.775 11.152-19.76 15.91-4.69 3.196-10.444 4.604-15.107 7.843-5.824 4.046-10.218 9.978-16.145 13.87-7.554 4.962-15.506 9.56-24.036 12.52-3.793 1.317-10.374 3.67-12.04 0-4.8-10.585-2.468-23.134-3.702-34.7l-1.44-3.23z" fill="#ffa0f1"/><path d="M44.12 180.354c23.14-.606 40.112.573 60.67-9.635 22.79-11.316 44.7-31.308 72.033-27.818 20.06 2.562 30.617 22.194 52.812 19.95 9.202-.93 23.25-12.88 27.372-4.56 5.264 10.63-2.542 28.066-13.274 33.028-10.47 4.84-21.315-9.054-32.495-11.865-4.753-1.195-9.937-1.16-14.7 0-4.864 1.184-8.496 5.757-13.384 6.835-13.287 2.93-23.45-8.892-36.86-4.306-44.416 15.19-36.238 24.36-77.402 18.035-3.015-.463-7.304 2.694-9.145.25l-6.293 2.986c-4.18-5.548-4.277-13.24-6.415-19.858l-2.918-3.045z" fill="#c992cf"/><path d="M85.232 229.754c37.03-37.637 92.302-11.045 136.942-15.424 8.057-.8 16.936-11.288 23.43-6.43 5.164 3.864-8.446 9.91-13.606 13.78-5.154 3.866-10.83 7.345-16.998 9.173-24.997 7.41-48.727-18.578-74.982-9.685-9.625 3.26-15.48 13.522-24.507 18.2-4.51 2.337-10.014 2.91-15.05 2.293-4.494-.55-9.168-2.425-12.365-5.647-2.147-2.163-1.395-5.947-2.093-8.92" fill="#ffa0f1"/><path d="M218.52 215.705l-.514.42c-20.254 16.413-46.013 26.24-74.055 26.24-65.214 0-118.08-53.14-118.08-118.692 0-27.23 9.122-52.317 24.46-72.344C66.73 135.574 133.908 201.54 218.52 215.705z" fill-opacity=".45" fill="#7544a5" transform="matrix(.945519 .325568 -.325568 .945519 54.465381 -31.782625)"/></g></g></g><g transform="translate(355 185)"><mask id="J" fill="#fff"><use xlink:href="#C"/></mask><path fill="#fdf5ff" transform="matrix(.999848 .017452 -.017452 .999848 1.128293 -3.58352)" d="M-6.967 144.52l425.694.003-.001-163.338-425.694-.003z" mask="url(#J)"/><g fill="#f0c7e8" mask="url(#J)"><path d="M377.496 83l-8.327 1.955c-1.217.197-2.22-.36-3.32-.755-1.107-.396-2.257-.626-3.436-.737-2.353-.22-4.614.23-6.782 1.07-1.13.438-2.26.966-3.47 1.185-1.428.26-2.733-.153-4.11-.465-5.236-1.187-10.32.184-15.544.66-5.433.493-10.934-.47-16.376-.564-6.427-.11-12.85.256-19.26.622-.345.02-.625.128-.85.287-.046-.01-.1-.024-.14-.03-4.37-.51-8.756-.688-13.156-.532a1.5 1.5 0 0 0-.45.088l-3.654-.033c-2.383-.022-4.777-.104-7.157.004-1.16.053-2.32.164-3.46.373-.57.104-1.136.258-1.715.302-.555.042-1.054-.043-1.58-.212-1.008-.325-1.94-.79-2.992-.995-1.118-.22-2.267-.266-3.406-.258-2.672.02-5.345.125-8.016.192-1.095.027-1.1 1.625 0 1.598l7.155-.177c1.1-.026 2.198-.05 3.28.097 1.106.15 2.08.555 3.107.937 1.102.4 2.16.497 3.328.305s2.3-.433 3.485-.518c2.338-.166 4.693-.08 7.035-.06l1.892.017c.15.25.426.437.738.417l1.273-.082c.204.34.582.58 1.136.56 4.4-.156 8.786.022 13.156.532.146.017.274.01.396-.01.173.056.37.086.594.073 5.75-.328 11.505-.656 17.268-.64 5.597.015 11.225.936 16.8.692 5.304-.23 10.693-2.086 15.993-.935 2.488.54 4.616 1.03 7.116.245 2.44-.765 4.57-1.948 7.22-1.927 2.725.022 5.066 1.817 7.75 1.594 3.09-.257 6.276-1.39 9.283-2.1 1.916-.45 1.104-3.225-.816-2.773" transform="matrix(.999848 .017452 -.017452 .999848 1.547803 -5.474647)"/><path d="M44.07 82.992l6.356 1.676c.928.17 1.694-.3 2.534-.647.846-.34 1.722-.536 2.62-.632 1.796-.19 3.522.197 5.176.917.86.376 1.725.828 2.648 1.016 1.09.22 2.085-.13 3.134-.4 3.997-1.018 7.877.16 11.863.565 4.146.422 8.344-.403 12.496-.483 4.905-.095 9.806.22 14.7.533.263.017.477.11.648.246.036-.01.07-.02.107-.026a59.03 59.03 0 0 1 10.04-.456 1.04 1.04 0 0 1 .342.075l2.79-.028c1.82-.02 3.645-.09 5.462.004a17.69 17.69 0 0 1 2.641.319c.433.09.867.222 1.31.26.423.036.805-.037 1.204-.182.77-.278 1.48-.676 2.284-.852.854-.187 1.73-.228 2.6-.22 2.038.02 4.078.108 6.117.165.836.023.84 1.393 0 1.37l-5.46-.152c-.832-.022-1.678-.043-2.504.083-.844.13-1.587.477-2.37.804-.84.35-1.648.426-2.54.26s-1.754-.37-2.66-.443c-1.785-.143-3.582-.07-5.37-.05l-1.444.014c-.113.213-.324.374-.563.357l-.97-.07a.89.89 0 0 1-.867.48 59.03 59.03 0 0 0-10.04.456.95.95 0 0 1-.302-.009c-.132.048-.28.074-.453.063-4.39-.282-8.78-.564-13.18-.55-4.272.013-8.567.802-12.828.593-4.05-.198-8.16-1.788-12.205-.802-1.9.463-3.523.88-5.43.2-1.86-.655-3.487-1.67-5.5-1.65-2.08.018-3.866 1.558-5.914 1.365-2.36-.22-4.8-1.192-7.085-1.8-1.462-.386-.843-2.764.623-2.377" transform="matrix(.999848 .017452 -.017452 .999848 1.506482 -1.595914)"/><path d="M32.37 92.356v7.36s17.915-4.653 28.69 0 29.44-.217 37.584.758 30.568-1.623 30.568-1.623 5.638-1.623 10.398 0 20.966-2.922 20.966-2.922-10.066.757-14.326 1.623-7.266-4.004-14.532-2.814-1.63 2.156-14.658 2.323-4.76-2.106-13.78-1.458S91 99.932 76.092 98.85s-5.763-3.68-19.418-5.735-7.517 3.03-16.286 1.514-8.018-2.272-8.018-2.272" transform="matrix(.999848 .017452 -.017452 .999848 1.708616 -1.668748)"/><path d="M376.84 75.25s-11.76 2.487-18.735-.35-19.228-.234-24.533-.9-19.984.57-19.984.57-3.702.876-6.8-.127-13.73 1.443-13.73 1.443 6.583-.317 9.376-.77 4.693 2.418 9.453 1.814 1.09-1.235 9.602-1.172 3.082 1.283 8.98 1.016 8.074-2.367 17.795-1.556 3.716 2.2 12.606 3.573 4.95-1.67 10.656-.682 5.206 1.42 5.206 1.42l.097-4.28z" transform="matrix(.999848 .017452 -.017452 .999848 1.386753 -5.834122)"/><path d="M159.106 10.836l3.178 14.436-3.178 5.25 1.6 9.187S155.047 56.492 145 52.366l2.03-6.752-4.905-13.687-4.63-17.483 6.674-10.17 14.937 6.562z" transform="matrix(.999848 .017452 -.017452 .999848 .522773 -2.61157)"/><path d="M123.544 3.282v12.306l-4.797 18.736s-.65 4.744 2.398 4.096 4.51-7.287 4.51-7.287l2.436-1.295v-3.724l-1.95-.486.162-3.076 1.787-.648v-3.4l-.65-3.4-.65-1.78-.487-2.914.487-2.59.304-1.767.996-5.196-5.36 2.43h.812z" transform="matrix(.999848 .017452 -.017452 .999848 .362027 -2.150469)"/><path transform="matrix(.999848 .017452 -.017452 .999848 .298943 -1.76311)" d="M103.44.853l-1.787 6.685 1.787 6.376 4.872 6.064-1.787 6.53-2.274 2.333 5.035 1.866-3.085.933h-4.548l-8.608-2.022 1.462-20.524 5.36-8.24z"/><path transform="matrix(.999848 .017452 -.017452 .999848 .798143 -1.669234)" d="M95.715 33.35l1.58 5.904 3.87 3.5 1.283 3.51-.642 5.925-6.09 4.24-3.907-3.463L89.626 36.7z"/><path transform="matrix(.999848 .017452 -.017452 .999848 1.094817 -1.457771)" d="M87.72 55.584l2.76 4.92-.648 5.617-5.356 2.29h-6.817z"/><path transform="matrix(.999848 .017452 -.017452 .999848 1.359688 -1.022791)" d="M69.965 69.267L65.34 84.12l-1.753 1.396-6.857-.82-8.134-6.237L61.99 72.55z"/><path transform="matrix(.999848 .017452 -.017452 .999848 1.580044 -.618039)" d="M41.756 85.68l-1.25 8.415-4.315 2.536-5.548-1.402V83.805z"/><path d="M256.313 39.067l-2.78-1.502-5.198-.635-4.836-1.015-3.748.76c-.605.254-7.537-.127-7.537-.127l-6.73.94-5.32-.56c-.362 0-6.528.56-6.528.56l-4.828 1.26h-7.202l6.045 1.576 6.53.56c.362 0 5.32-.56 5.32-.56l6.73.942 7.537-.127c.604.254 3.748.762 3.748.762l4.835-1.016 5.2-.634 2.193-1.185h6.572z" transform="matrix(.999848 .017452 -.017452 .999848 .713915 -3.989965)"/><path d="M250.33 30.424l1.217-.643 2.274-.272 2.116-.434 1.64.326c.264.108 3.297-.054 3.297-.054l2.944.403 2.327-.24c.16 0 2.857.24 2.857.24l2.112.54h3.15l-2.644.675-2.857.24c-.158 0-2.326-.24-2.326-.24l-2.945.403-3.298-.054c-.264.108-1.64.326-1.64.326l-2.117-.435-2.274-.272-.96-.508h-2.875z" transform="matrix(.999848 .017452 -.017452 .999848 .569742 -4.573088)"/><path d="M230.67 87.585l-1.217.644-2.274.272-2.116.435-1.64-.326c-.264-.11-3.297.054-3.297.054l-2.944-.403-2.328.24c-.158 0-2.856-.24-2.856-.24l-2.112-.54h-3.15l2.644-.675 2.857-.24c.158 0 2.326.24 2.326.24l2.945-.403 3.297.055c.265-.11 1.64-.326 1.64-.326l2.117.435 2.274.272.96.508h2.875z" transform="matrix(.999848 .017452 -.017452 .999848 1.563067 -3.80352)"/><path d="M129.802 87.81l2.78-1.502 5.2-.635 4.836-1.015 3.748.76c.604.254 7.537-.127 7.537-.127l6.73.942 5.32-.56c.362 0 6.528.56 6.528.56l4.828 1.26h7.202l-6.045 1.576-6.528.56c-.362 0-5.32-.56-5.32-.56l-6.73.94-7.537-.127c-.605.254-3.748.762-3.748.762l-4.835-1.016-5.2-.634-2.193-1.185h-6.572z" transform="matrix(.999848 .017452 -.017452 .999848 1.553691 -2.729391)"/></g></g><g transform="translate(201 366.422)"><g transform="translate(0 4.374)"><mask id="K" fill="#fff"><use xlink:href="#D"/></mask><path fill="url(#E)" mask="url(#K)" d="M-12.252 27.573h118.036V-8.524H-12.252z"/></g><path d="M17.087 4.573c0 2.097 14.947 3.797 33.384 3.797s33.384-1.7 33.384-3.797S68.908.776 50.47.776s-33.384 1.7-33.384 3.797" fill="url(#F)"/></g><g transform="translate(30 375.884)"><g transform="translate(0 9.912)"><mask id="L" fill="#fff"><use xlink:href="#G"/></mask><path fill="url(#E)" mask="url(#L)" d="M-27.076 60.397h260.86v-79.07h-260.86z"/></g><path d="M39.225 9.912c0 4.97 33.41 9 74.625 9s74.625-4.03 74.625-9-33.41-9-74.625-9-74.625 4.03-74.625 9" fill="url(#H)"/></g></g></svg>