<svg xmlns="http://www.w3.org/2000/svg" xmlns:xlink="http://www.w3.org/1999/xlink" width="855" height="825" xmlns:v="https://vecta.io/nano"><style><![CDATA[.B{fill:#fff}.C{fill:#fd817f}.D{mask:url(#L)}]]></style><defs><linearGradient x1="34.8797543%" y1="29.9440686%" x2="50%" y2="100%" id="A"><stop stop-color="#ffe0c1" offset="0%"/><stop stop-color="#ffded0" offset="100%"/></linearGradient><path d="M807.284.278v824.996H183.43C30.96 758.133-20.731 679.212 28.357 588.513 101.99 452.464 75.226 445.41 47.78 390.554s-59.64-115.036-3.356-193.434c45.685-63.634-3.433-78.972-36.621-113.817C-12.271 62.226 7.185 10.784 56.986 0c69.762 1.838 319.862 1.93 750.299.278z" id="B"/><ellipse id="C" cx="123.767" cy="123.347" rx="123.767" ry="123.347"/><linearGradient x1="50%" y1="0%" x2="50%" y2="100%" id="D"><stop stop-color="#ff8d8d" offset="0%"/><stop stop-color="#ffc8c8" offset="100%"/></linearGradient><path d="M70.857 34.894l29.922 129.213c2.773 14.186-4.103 20.238-20.628 18.158-24.787-3.121-32.886-92.506-66.077-130.812-22.127-25.537-18.163-28.186 11.891-7.946 13.411 9.119 25.167 23.189 35.267 42.209s1.791.174-24.928-56.539C28.575 14.254 26.861 4.678 31.165.448S48.699 21.95 70.857 77.645C62.2 32.623 58.991 8.76 61.232 6.058s5.449 6.909 9.624 28.836z" id="E"/><linearGradient x1="50%" y1="0%" x2="50%" y2="100%" id="F"><stop stop-color="#ffc8c8" offset="0%"/><stop stop-color="#ff8d8d" offset="100%"/></linearGradient><path d="M54.019 26.649l22.812 98.685c2.114 10.834-3.128 15.457-15.726 13.868-18.897-2.384-25.071-70.65-50.375-99.906-16.869-19.504-13.847-21.526 9.065-6.069 10.225 6.965 19.187 17.71 26.887 32.237s1.365.133-19.004-43.181C21.785 10.886 20.479 3.573 23.759.342S37.127 16.764 54.019 59.3c-6.6-34.385-9.046-52.61-7.337-54.674s4.154 5.277 7.337 22.023z" id="G"/><path d="M41.9 20.702l15.088 65.149c1.398 7.152-2.07 10.204-10.405 9.156-12.502-1.573-16.585-46.641-33.325-65.954-11.16-12.875-9.161-14.211 5.998-4.007 6.764 4.597 12.694 11.691 17.787 21.281s.903.088-12.572-28.507c-3.898-7.524-4.762-12.352-2.591-14.485s8.843 10.841 20.018 38.922c-4.365-22.7-5.983-34.732-4.852-36.095s2.748 3.484 4.854 14.539z" id="H"/><path d="M38.579 18.112l11.583 49.718c1.074 5.458-1.57 7.783-7.933 6.975-9.545-1.212-12.706-35.6-25.503-50.351-8.532-9.834-7.007-10.851 4.574-3.051 5.168 3.514 9.701 8.932 13.599 16.253s.69.068-9.625-21.761c-2.983-5.744-3.647-9.428-1.993-11.053s6.761 8.28 15.319 29.714c-3.355-17.323-4.601-26.503-3.74-27.542s2.101 2.66 3.719 11.097z" id="I"/><linearGradient x1="50%" y1="0%" x2="50%" y2="100%" id="J"><stop stop-color="#ffc29c" offset="0%"/><stop stop-color="#ffa054" offset="100%"/></linearGradient><linearGradient x1="50%" y1="0%" x2="50%" y2="100%" id="K"><stop stop-color="#ffcbcb" offset="0%"/><stop stop-color="#ff6969" offset="100%"/></linearGradient></defs><g fill="none" fill-rule="evenodd"><path d="M0 0h855v825H0z" class="B"/><g transform="translate(4.67 -1)"><g transform="translate(42.556)"><mask id="L" class="B"><use xlink:href="#B"/></mask><use fill="url(#A)" xlink:href="#B"/><g class="D"><g transform="translate(504.137 172.04)"><g transform="matrix(.965926 -.258819 .258819 .965926 0 64.066509)"><mask id="M" class="B"><use xlink:href="#C"/></mask><use xlink:href="#C" class="C"/><g mask="url(#M)"><g transform="matrix(.965926 .258819 -.258819 .965926 22.638082 -66.857481)"><path d="M45.362 36.982c20.123 20.615 42.289 31.752 72.268 28.411 13.996-1.56 24.395-9.528 39.087-5.34 62.243 17.741 13.642 16.665 66.933 20.611 8.31.615 16.822 1.599 24.999 0 7.572-1.48 15.341-13.945 21.293-9.051 8.645 7.108 14.204 23.771 7.44 32.677-11.097 14.611-36.991-3.547-48.827-5.859-17.625-3.443-34.256 13.805-50.304 6.923-15.215-6.525-29.058-27.437-49.243-22.08-50.33 13.357-15.695 22.13-78.496 29.06-12.737 1.406-43.419 12.762-38.432.997L0 108.134c102.234-241.165 16.27 7.327 41.652-67.238l3.71-3.915z" fill="#d36361"/><path d="M1.719 148.116c38.156 7.205 61.326-9.868 96.851-23.128 24.59-9.178 41.312 3.486 65.08 6.317 26.576 3.165 14.238-5.742 36.559-11.989 18.51-5.18 44.197 9.327 58.506 11.674 8.793 1.442 18.235-3.595 26.718-.877 3.199 1.025-4.218 5.381-7.054 7.177-4.755 3.011-9.741 7.363-15.363 7.017-9.282-.573-17.189-7.252-26.191-9.58-2.786-.72-5.938-.474-8.615.579-9.301 3.658-18.199 8.336-26.832 13.364-4.663 2.715-7.585 8.797-12.896 9.774-8.883 1.634-18.52.693-26.99-2.436-12.44-4.595-22.264-14.54-34.259-20.19-4.185-1.971-9.451-4.269-13.678-2.389-9.345 4.156-15.49 13.407-23.962 19.129-5.689 3.843-12.665 5.535-18.318 9.429-7.062 4.865-12.391 11.996-19.577 16.676-9.16 5.965-18.802 11.494-29.146 15.054-4.599 1.583-12.579 4.412-14.598 0-5.822-12.725-2.993-27.812-4.489-41.718l-1.746-3.885z" fill="#fcaba9"/><g fill="#d36361"><path d="M22.347 216.828c28.058-.728 48.639.688 73.567-11.584 27.636-13.605 54.202-37.64 87.346-33.443 24.326 3.08 37.126 26.682 64.039 23.984 11.158-1.118 28.194-15.486 33.191-5.481 6.383 12.779-3.083 33.741-16.095 39.707-12.695 5.82-25.846-10.885-39.402-14.264-5.764-1.437-12.05-1.394-17.824 0-5.898 1.423-10.303 6.922-16.23 8.218-16.112 3.524-28.435-10.69-44.697-5.176-53.858 18.261-43.941 29.285-93.856 21.682-3.655-.557-8.857 3.239-11.089.301l-7.631 3.59c-5.068-6.671-5.186-15.916-7.779-23.874l-3.539-3.661zm49.85 59.39c44.902-45.248 111.924-13.278 166.053-18.544 9.77-.95 20.536-13.571 28.41-7.729 6.262 4.646-10.241 11.913-16.498 16.566-6.25 4.647-13.132 8.83-20.611 11.028-30.311 8.91-59.085-22.335-90.922-11.644-11.671 3.919-18.769 16.257-29.716 21.88-5.469 2.809-12.143 3.498-18.251 2.757-5.449-.661-11.117-2.916-14.994-6.789-2.603-2.6-1.692-7.149-2.538-10.724"/></g></g></g></g><path d="M231.95 245.843l-.732.595c-21.356 17.216-48.515 27.523-78.081 27.523-68.759 0-124.5-55.741-124.5-124.5 0-29.908 10.546-57.352 28.121-78.818 15.357 89.348 85.85 159.84 175.192 175.2z" fill-opacity=".174" fill="#914e4d"/></g><path d="M9.811 496.025l391.843-42.949c52.631-23.046 123.554-34.22 212.77-33.521s155.004 11.872 197.365 33.521L807.937 826H9.811V496.025z" fill="#fff4f4"/><g class="B"><g transform="matrix(.788011 -.615661 .615661 .788011 573.370671 754.237426)"><g transform="translate(113.926 78.793)"><ellipse cx="8.51" cy="7.823" rx="1.964" ry="1.936"/><circle cx=".655" cy="2.661" r="1"/><circle cx="29.457" cy="15.565" r="1"/><circle cx="21.602" cy="11.694" r="1"/><circle cx="9.819" cy="15.565" r="1"/><ellipse transform="matrix(.71934 .694658 -.694658 .71934 15.956555 -8.363864)" cx="18.329" cy="15.565" rx="1.3" ry="1"/><ellipse transform="matrix(.71934 -.694658 .694658 .71934 2.354895 8.569745)" cx="11.783" cy="1.371" rx="1.3" ry="1"/></g><g transform="matrix(-.069756 -.997564 .997564 -.069756 88.929222 67.773073)"><ellipse cx="8.433" cy="7.86" rx="1.946" ry="1.948"/><circle cx=".649" cy="2.667" r="1"/><circle cx="29.19" cy="15.65" r="1"/><circle cx="21.406" cy="11.755" r="1"/><circle cx="9.73" cy="15.65" r="1"/><ellipse transform="matrix(.71934 .694658 -.694658 .71934 15.969211 -8.224413)" cx="18.163" cy="15.65" rx="1.298" ry="1"/><ellipse transform="matrix(.71934 -.694658 .694658 .71934 2.326451 8.494877)" cx="11.676" cy="1.368" rx="1.298" ry="1"/></g><g transform="matrix(-.882948 -.469472 .469472 -.882948 53.287098 65.230593)"><ellipse cx="6.253" cy="5.444" rx="1.297" ry="1.298"/><circle cx=".649" cy="1.809" r="1"/><circle cx="20.63" cy="11.763" r="1"/><circle cx="15.903" cy="8.396" r="1"/><circle cx="7.276" cy="11.517" r="1"/><circle transform="matrix(.71934 .694658 -.694658 .71934 11.473305 -6.004607)" cx="13.168" cy="11.196" r="1"/><circle transform="matrix(.71934 -.694658 .694658 .71934 1.737998 6.291617)" cx="8.655" cy=".995" r="1"/></g><g transform="matrix(-.882948 -.469472 .469472 -.882948 147.983519 20.94898)"><ellipse cx="6.253" cy="5.444" rx="1.297" ry="1.298"/><circle cx=".649" cy="1.809" r="1"/><circle cx="20.63" cy="11.763" r="1"/><circle cx="15.903" cy="8.396" r="1"/><circle cx="7.276" cy="11.517" r="1"/><circle transform="matrix(.71934 .694658 -.694658 .71934 11.473305 -6.004607)" cx="13.168" cy="11.196" r="1"/><circle transform="matrix(.71934 -.694658 .694658 .71934 1.737998 6.291617)" cx="8.655" cy=".995" r="1"/></g><g transform="matrix(-.882948 -.469472 .469472 -.882948 68.846155 152.083987)"><ellipse cx="6.253" cy="5.444" rx="1.297" ry="1.298"/><circle cx="20.63" cy="11.763" r="1"/><circle cx="15.903" cy="8.396" r="1"/><circle cx="7.276" cy="11.517" r="1"/><circle transform="matrix(.71934 .694658 -.694658 .71934 11.473305 -6.004607)" cx="13.168" cy="11.196" r="1"/></g></g></g><g transform="matrix(-.999391 -.034899 -.034899 .999391 208.907208 628.800113)"><g transform="matrix(.990268 .139173 -.139173 .990268 49.333666 0)"><mask id="N" class="B"><use xlink:href="#E"/></mask><use fill="url(#D)" xlink:href="#E"/><g class="C"><path d="M101.724 200.752L43.611 77.135c-15.886-33.89 57.336 102.955 63.685 122.97 4.233 13.343 2.375 13.559-5.572.647z" mask="url(#N)" transform="matrix(.999391 -.034899 .034899 .999391 -4.875623 2.718438)"/><path d="M117.9 216.45L59.828 92.847c-15.875-33.886 57.302 102.941 63.645 122.954 4.228 13.342 2.371 13.559-5.572.648z" mask="url(#N)" transform="matrix(.990268 .139173 -.139173 .990268 22.703726 -11.226871)"/></g></g><g transform="matrix(-.93358 .358368 .358368 .93358 72.15359 37.437052)"><mask id="O" class="B"><use xlink:href="#G"/></mask><use fill="url(#F)" xlink:href="#G"/><g class="C"><path d="M77.97 153.021L33.672 58.614c-12.109-25.882 43.707 78.628 48.546 93.913 3.226 10.191 1.81 10.355-4.248.494z" mask="url(#O)" transform="matrix(.999391 -.034899 .034899 .999391 -3.713072 2.087094)"/><path d="M90.317 165.015L46.019 70.608c-12.109-25.882 43.707 78.627 48.546 93.913 3.226 10.191 1.81 10.355-4.248.494z" mask="url(#O)" transform="matrix(.990268 .139173 -.139173 .990268 17.300962 -8.618486)"/></g></g></g></g></g><g transform="translate(0 629.297)"><g transform="matrix(.951057 -.309017 .309017 .951057 7.871281 20.211198)"><mask id="P" class="B"><use xlink:href="#H"/></mask><use fill="url(#D)" transform="matrix(.990268 .139173 -.139173 .990268 7.150346 -3.936826)" xlink:href="#H"/><g class="C"><path d="M53.856 105.821L24.547 43.494c-8.012-17.087 28.918 51.909 32.12 62 2.135 6.728 1.198 6.836-2.811.326z" mask="url(#P)" transform="matrix(.994522 .104528 -.104528 .994522 8.135738 -3.828707)"/><path d="M60.831 114.795L31.547 52.476c-8.005-17.085 28.896 51.901 32.094 61.992 2.132 6.727 1.195 6.836-2.811.327z" mask="url(#P)" transform="matrix(.961262 .275637 -.275637 .961262 25.185026 -9.835235)"/></g></g><g transform="matrix(.951057 -.309017 .309017 .951057 0 36.539872)"><g transform="translate(0 19.097)"><mask id="Q" class="B"><use xlink:href="#I"/></mask><use fill="url(#F)" transform="matrix(.93358 -.358368 .358368 .93358 -12.22026 13.698638)" xlink:href="#I"/><g class="C"><path d="M57.324 72.969L34.891 25.386C28.758 12.34 57.014 65.021 59.469 72.723c1.636 5.135.921 5.217-2.145.246z" mask="url(#Q)" transform="matrix(.920505 -.390731 .390731 .920505 -15.778078 22.404631)"/><path d="M53.663 80.82L31.246 33.266c-6.128-13.037 22.112 39.609 24.563 47.307 1.634 5.132.919 5.215-2.146.247z" mask="url(#Q)" transform="matrix(.97437 -.224951 .224951 .97437 -11.896334 11.272344)"/></g></g><g transform="matrix(-.891007 .45399 .45399 .891007 82.092766 0)"><mask id="R" class="B"><use xlink:href="#L" href="#I"/></mask><use fill="url(#F)" transform="matrix(.93358 -.358368 .358368 .93358 -12.22026 13.698638)" xlink:href="#L" href="#I"/><g class="C"><path d="M57.324 72.969L34.891 25.386C28.758 12.34 57.014 65.021 59.469 72.723c1.636 5.135.921 5.217-2.145.246z" mask="url(#R)" transform="matrix(.920505 -.390731 .390731 .920505 -15.778078 22.404631)"/><path d="M53.663 80.82L31.246 33.266c-6.128-13.037 22.112 39.609 24.563 47.307 1.634 5.132.919 5.215-2.146.247z" mask="url(#R)" transform="matrix(.97437 -.224951 .224951 .97437 -11.896334 11.272344)"/></g></g></g></g><g transform="translate(53.33 457)"><path d="M22.6 311.682c-26.408-13.564-29.523-49.144-10.129-84.404 31.627-57.501 53.635-88.815 31.627-118.515s-30.479-74.443 0-97.323c20.32-15.253 34.478-15.253 42.476 0 8.164 14.09-1.375 24.179-28.617 30.265s-21.702 28.439 16.62 67.058c20.673 21.091 20.673 46.652 0 76.682-12.545 18.222 9.525 81.852-.263 88.656C53.082 288.86 23.082 311.93 22.6 311.682z" fill="url(#J)" transform="matrix(-1 0 0 1 90.08206 0)"/><path d="M32.997 329.06c2.11-4.281 4.685-8.856 7.725-13.726 14.608-23.401 30.615-26.435 18.206-50.723s-8.752-30.119 2.984-47.277c7.824-11.439 7.824-32.06 0-61.863 20.568 23.339 27.334 46.281 20.297 68.826-10.555 33.816-.389 37.481 7.556 51.773 1.912 3.44 6.953 6.307 7.06 10.402.003.126-9.004 9.409-33.004 24.455-6.829 4.281-31.044 18.581-30.823 18.134z" fill="url(#K)" transform="matrix(-1 0 0 1 129.820584 0)"/></g><g class="B"><path d="M143.404 311.083l-1.312-2.711a4.08 4.08 0 0 0-1.703-1.796l-3.318-1.831 3.223-1.674a4.08 4.08 0 0 0 1.819-1.898l1.291-2.767 1.291 2.767a4.08 4.08 0 0 0 1.819 1.898l3.223 1.674-3.318 1.831c-.74.408-1.335 1.036-1.703 1.796l-1.312 2.711zM746.687 57.441l-.898-1.856c-.252-.521-.659-.95-1.166-1.229l-2.271-1.253 2.206-1.146c.547-.284.984-.74 1.245-1.299l.883-1.894.884 1.894c.261.559.698 1.015 1.245 1.299l2.206 1.146-2.271 1.253c-.506.279-.913.709-1.166 1.229l-.898 1.856z"/><circle fill-rule="nonzero" cx="590.365" cy="151.035" r="3.035"/><circle opacity=".568" cx="169.217" cy="50.918" r="3.342"/></g></g></g></svg>