<svg xmlns="http://www.w3.org/2000/svg" xmlns:xlink="http://www.w3.org/1999/xlink" width="855" height="825" xmlns:v="https://vecta.io/nano"><defs><linearGradient x1="79.610426%" y1="22.9132809%" x2="8.21853548%" y2="93.6689503%" id="A"><stop stop-color="#dcf6e2" offset="0%"/><stop stop-color="#b5e1db" offset="100%"/></linearGradient><path d="M861 0v827H64.886c-86.515-72.754-86.515-171.673 0-296.757s107.771-219.711 63.767-283.882C22.033 114.581-13.259 32.571 22.775.337 23.007.13 302.415.017 861 0z" id="B"/><path d="M258.632 28.475l-1.745 1.106c-.567.359-1.187.628-1.837.795l-12.366 3.191c-11.569 2.982-21.404 10.578-27.207 21.007-.789 1.419-1.009 3.085-.615 4.66l8.56 34.194c.075.297.128.6.158.905.318 3.168 2.078 21.865-.046 25.043-1.859 2.787-.742 15.238-.223 20.083a6.36 6.36 0 0 1-.729 3.705l-5.903 10.943c-.812 1.508-.987 3.28-.48 4.92l6.549 21.202a6.39 6.39 0 0 1-.462 4.884l-3.912 7.366c-1.113 2.093-3.289 3.4-5.659 3.399h-34.671c-3.198 0-5.908 2.357-6.346 5.521l-8.652 62.359a6.39 6.39 0 0 1-1.254 3.006l-24.761 32.362c-1.088 1.425-2.725 2.327-4.51 2.488l-9.023.82a6.32 6.32 0 0 1-1.873-.105l-12.328-2.531c-2.269-.466-4.111-2.121-4.815-4.328l-3.725-11.675a6.4 6.4 0 0 0-6.103-4.458H84.491a6.41 6.41 0 0 0-5.563 3.227l-11.62 20.306a6.47 6.47 0 0 1-1.141 1.455l-37.984 36.171c-.194.184-.376.381-.546.588l-9.282 11.378A205.74 205.74 0 0 0 .223 378.565C.162 378.663 0 646.068 0 646.068l814.117.091c28.742 0 51.621-60.736 55.67-73.895 2.699-8.773-.471-18.522-9.51-29.248-.466-.366-.981-.665-1.529-.89l-44.161-18.096a5.99 5.99 0 0 1-.541-.253l-72.131-37.731a76.1 76.1 0 0 0-52.681-6.651l-25.129 5.906c-1.695.399-3.479.091-4.943-.853a6.41 6.41 0 0 1-2.814-4.153l-6.599-33.897c-.168-.86-.511-1.675-1.005-2.399l-11.909-17.337a113.41 113.41 0 0 0-38.918-35.23c-33.533-18.416-91.438-49.84-97.619-50.66l-1.513-.213c-13.16-1.964-25.819-6.445-37.41-12.974l-28.022-15.787a6.4 6.4 0 0 1-2.875-3.383l-8.264-22.673a6.4 6.4 0 0 1-.308-1.19l-6.569-41.579c-2.47-15.625-.495-31.631 5.701-46.186l6.899-16.211c1.674-3.933-.911-8.369-5.162-8.859-13.794-1.589-26.274-8.926-34.358-20.202l-16.03-22.354a6.39 6.39 0 0 1-1.198-3.724V92.555c0-2.079-1.009-4.029-2.71-5.227l-7.726-5.449a6.4 6.4 0 0 1-2.712-5.228V48.615c0-.731-.127-1.455-.37-2.146l-3.371-9.465a76.9 76.9 0 0 0-21.213-31.545C329.145 1.942 324.047 0 318.764 0c-2.794 0-5.56.544-8.146 1.602a331.48 331.48 0 0 0-51.988 26.871l.001.001z" id="C"/><ellipse id="D" cx="126.675" cy="127.081" rx="126.675" ry="127.081"/><path id="E" d="M115.135 626l-1.362-2.813a4.24 4.24 0 0 0-1.768-1.864l-3.446-1.9 3.347-1.736a4.24 4.24 0 0 0 1.889-1.969l1.339-2.871 1.341 2.871c.395.847 1.059 1.538 1.889 1.969l3.347 1.736-3.446 1.899a4.24 4.24 0 0 0-1.768 1.864l-1.363 2.813.002.001z"/></defs><g fill="none" fill-rule="evenodd"><path fill="#fff" d="M0 0h855v825H0z"/><g transform="translate(15)"><path d="M861 0v827H64.886c-86.515-72.754-86.515-171.673 0-296.757s107.771-219.711 63.767-283.882C22.033 114.581-13.259 32.571 22.775.337 23.007.13 302.415.017 861 0z" fill="url(#A)" fill-rule="nonzero"/><mask id="F" fill="#fff"><use xlink:href="#B"/></mask><g mask="url(#F)"><g transform="matrix(-1 0 0 1 860.173971 181.194784)"><g fill="#c7f0ec" fill-rule="nonzero"><path d="M258.632 28.475l-1.745 1.106c-.567.359-1.187.628-1.837.795l-12.366 3.191c-11.569 2.982-21.404 10.578-27.207 21.007-.789 1.419-1.009 3.085-.615 4.66l8.56 34.194c.075.297.128.6.158.905.318 3.168 2.078 21.865-.046 25.043-1.859 2.787-.742 15.238-.223 20.083a6.36 6.36 0 0 1-.729 3.705l-5.903 10.943c-.812 1.508-.987 3.28-.48 4.92l6.549 21.202a6.39 6.39 0 0 1-.462 4.884l-3.912 7.366c-1.113 2.093-3.289 3.4-5.659 3.399h-34.671c-3.198 0-5.908 2.357-6.346 5.521l-8.652 62.359a6.39 6.39 0 0 1-1.254 3.006l-24.761 32.362c-1.088 1.425-2.725 2.327-4.51 2.488l-9.023.82a6.32 6.32 0 0 1-1.873-.105l-12.328-2.531c-2.269-.466-4.111-2.121-4.815-4.328l-3.725-11.675a6.4 6.4 0 0 0-6.103-4.458H84.491a6.41 6.41 0 0 0-5.563 3.227l-11.62 20.306a6.47 6.47 0 0 1-1.141 1.455l-37.984 36.171c-.194.184-.376.381-.546.588l-9.282 11.378A205.74 205.74 0 0 0 .223 378.565C.162 378.663 0 646.068 0 646.068l814.117.091c28.742 0 51.621-60.736 55.67-73.895 2.699-8.773-.471-18.522-9.51-29.248-.466-.366-.981-.665-1.529-.89l-44.161-18.096a5.99 5.99 0 0 1-.541-.253l-72.131-37.731a76.1 76.1 0 0 0-52.681-6.651l-25.129 5.906c-1.695.399-3.479.091-4.943-.853a6.41 6.41 0 0 1-2.814-4.153l-6.599-33.897c-.168-.86-.511-1.675-1.005-2.399l-11.909-17.337a113.41 113.41 0 0 0-38.918-35.23c-33.533-18.416-91.438-49.84-97.619-50.66l-1.513-.213c-13.16-1.964-25.819-6.445-37.41-12.974l-28.022-15.787a6.4 6.4 0 0 1-2.875-3.383l-8.264-22.673a6.4 6.4 0 0 1-.308-1.19l-6.569-41.579c-2.47-15.625-.495-31.631 5.701-46.186l6.899-16.211c1.674-3.933-.911-8.369-5.162-8.859-13.794-1.589-26.274-8.926-34.358-20.202l-16.03-22.354a6.39 6.39 0 0 1-1.198-3.724V92.555c0-2.079-1.009-4.029-2.71-5.227l-7.726-5.449a6.4 6.4 0 0 1-2.712-5.228V48.615c0-.731-.127-1.455-.37-2.146l-3.371-9.465a76.9 76.9 0 0 0-21.213-31.545C329.145 1.942 324.047 0 318.764 0c-2.794 0-5.56.544-8.146 1.602a331.48 331.48 0 0 0-51.988 26.871l.001.001z"/></g><mask id="G" fill="#fff"><use xlink:href="#C"/></mask><path d="M271.15-1.561l2.089 78.869 21.597 35.955s3.478 27.837 0 33.637-18.148 20.878-19.508 28.996-5.597 22.037 0 25.516 12.553 16.237 16.033 16.237 57.961-8.118 57.961-8.118l28.981-9.278v8.12l-16.23 13.916-35.932 8.12c-5.797 1.16-37.096 11.597-37.096 11.597s-7.865 23.199-6.25 26.678-5.091 8.118 0 12.758 19.003 16.239 20.163 20.878-4.638 20.878-4.638 20.878-8.115 17.398-9.274 30.155 15.069 30.157 15.069 30.157l26.746 19.719c13.826 10.436 22.845 9.277 26.45 18.555s9.413 12.759 20.996 24.358 57.961 8.118 64.916 5.798 23.185-16.237 31.3-5.798 11.592 16.621 11.592 23.388 6.954 11.406 0 17.206-13.911 5.798-15.071 16.237 10.434 22.037 10.434 22.037l37.096 24.355c9.276 5.798 23.404 3.48 20.976 15.079s-5.905 19.719-5.905 19.719l-2.318 13.919s-2.284 3.553-2.301 14.536l-.018 16.781 19.921 16.76H.328L-.684 354.628l92.108-105.275c67.479-45.889 99.193-78.956 95.145-99.201-6.073-30.368 13.616-100.474 20.244-112.361 4.418-7.926 25.864-21.042 64.338-39.352h0z" fill="#aedcd3" fill-rule="nonzero" mask="url(#G)"/></g></g><g fill-rule="nonzero"><ellipse fill="#fff" cx="33.908" cy="104.263" rx="21.256" ry="21.257"/><path d="M46.215 120.877l-.049.04c-3.66 2.984-8.24 4.61-12.962 4.603-11.35 0-20.55-9.212-20.55-20.552a20.47 20.47 0 0 1 4.643-13.012c2.605 14.76 14.16 26.316 28.919 28.921l-.001-.001z" fill="#d0d0d0" opacity=".674"/><g fill="#e0e0e0" opacity=".57"><circle cx="33.403" cy="92.622" r="3.543"/><circle cx="40.488" cy="106.794" r="3.543"/></g><g fill="#fff"><use xlink:href="#E"/><circle cx="90.035" cy="100.035" r="3.035"/><circle cx="760.54" cy="357.54" r="3.54"/><use xlink:href="#E" x="324.29" y="-365.068"/></g></g></g><g transform="translate(-20 284)"><g transform="matrix(.965926 -.258819 .258819 .965926 0 65.572056)"><mask id="H" fill="#fff"><use xlink:href="#D"/></mask><use fill="#02ccba" xlink:href="#D"/><g mask="url(#H)"><g transform="translate(-21.113 -35.3)"><path d="M46.428 38.101c20.596 21.239 43.283 32.714 73.966 29.271 14.325-1.607 24.968-9.816 40.005-5.502 63.706 18.278 13.962 17.17 68.506 21.235 8.505.634 17.217 1.647 25.587 0 7.75-1.525 15.701-14.367 21.793-9.325 8.848 7.324 14.538 24.491 7.615 33.666-11.358 15.054-37.86-3.654-49.974-6.036-18.039-3.547-35.061 14.223-51.486 7.132-15.572-6.722-29.74-28.268-50.4-22.749-51.512 13.761-16.064 22.8-80.341 29.94-13.037 1.448-44.44 13.148-39.335 1.027L0 111.408c104.637-248.466 16.652 7.549 42.631-69.274l3.797-4.033z" fill="#02a899"/><path d="M1.759 152.601c39.053 7.423 62.767-10.167 99.127-23.828 25.168-9.456 42.282 3.592 66.609 6.509 27.201 3.261 14.572-5.916 37.418-12.352 18.945-5.337 45.236 9.61 59.881 12.028 8.999 1.486 18.663-3.704 27.346-.903 3.274 1.056-4.317 5.544-7.22 7.394-4.867 3.102-9.97 7.586-15.724 7.229-9.5-.59-17.593-7.471-26.807-9.87-2.851-.742-6.077-.489-8.818.596-9.519 3.769-18.627 8.589-27.463 13.769-4.772 2.798-7.763 9.063-13.199 10.07-9.092 1.684-18.955.714-27.624-2.51-12.732-4.734-22.787-14.98-35.064-20.801-4.283-2.031-9.673-4.398-13.999-2.461-9.565 4.282-15.854 13.813-24.525 19.708-5.823 3.959-12.962 5.702-18.748 9.715-7.228 5.012-12.682 12.36-20.037 17.181-9.375 6.146-19.244 11.842-29.83 15.509-4.708 1.631-12.875 4.546-14.941 0-5.959-13.111-3.063-28.654-4.594-42.981l-1.787-4.002z" fill="#06decb"/><g fill="#02a899"><path d="M22.872 223.392c28.717-.75 49.782.709 75.296-11.935 28.285-14.017 55.476-38.779 89.399-34.456 24.898 3.173 37.999 27.49 65.544 24.71 11.42-1.152 28.856-15.955 33.971-5.647 6.533 13.166-3.155 34.763-16.474 40.909-12.993 5.996-26.454-11.215-40.328-14.696-5.899-1.48-12.333-1.436-18.243 0-6.036 1.466-10.545 7.131-16.611 8.467-16.491 3.63-29.103-11.013-45.747-5.333-55.124 18.813-44.974 30.172-96.062 22.339-3.741-.574-9.065 3.337-11.35.31l-7.811 3.699c-5.187-6.873-5.308-16.398-7.962-24.597l-3.622-3.771zm51.022 61.188c45.957-46.618 114.554-13.68 169.956-19.105 10-.979 21.018-13.982 29.078-7.963 6.409 4.786-10.482 12.274-16.886 17.068-6.397 4.788-13.44 9.097-21.095 11.362-31.023 9.179-60.474-23.011-93.058-11.997-11.945 4.038-19.21 16.749-30.415 22.542-5.598 2.894-12.428 3.604-18.68 2.841-5.578-.681-11.378-3.004-15.346-6.995-2.664-2.679-1.732-7.366-2.598-11.049"/></g></g></g></g><path d="M232.966 255.146l-.378.302c-21.059 16.795-47.69 26.811-76.917 26.811-69.588 0-127.544-56.782-127.544-126.646 0-30.334 10.635-58.174 28.365-79.968 15.735 90.798 86.484 162.611 176.473 179.5z" fill-opacity=".455" fill="#029487"/></g></g></svg>