<?xml version="1.0" encoding="utf-8"?>
<!-- Generator: Adobe Illustrator 19.2.1, SVG Export Plug-In . SVG Version: 6.00 Build 0)  -->
<svg version="1.1" id="Layer_1" xmlns="http://www.w3.org/2000/svg" xmlns:xlink="http://www.w3.org/1999/xlink" x="0px" y="0px"
	 viewBox="0 0 188.9 29.3" style="enable-background:new 0 0 188.9 29.3;" xml:space="preserve">
<style type="text/css">
	.st0{fill:#8DC63F;}
	.st1{fill:#333333;}
	.st2{fill:#FFFFFF;}
</style>
<title>RND logo final [Recovered]</title>
<g>
	<g>
		<path class="st0" d="M7.1,14.6H6.6c-0.1,0-0.3-0.1-0.3-0.3l0,0v-1.9c0-0.1,0.1-0.3,0.3-0.3l0,0h0.5V14.6L7.1,14.6z"/>
		<path class="st0" d="M8.5,14.9H7.7c-0.1,0-0.3-0.1-0.3-0.3l0,0v-2.4c0-0.1,0.1-0.3,0.3-0.3l0,0h0.8L8.5,14.9L8.5,14.9z"/>
		<path class="st0" d="M22.2,14.6h0.5c0.1,0,0.3-0.1,0.3-0.3l0,0v-1.9c0-0.1-0.1-0.3-0.3-0.3l0,0h-0.5V14.6L22.2,14.6z"/>
		<path class="st0" d="M20.9,14.9h0.8c0.1,0,0.3-0.1,0.3-0.3l0,0v-2.4c0-0.1-0.1-0.3-0.3-0.3l0,0h-0.8V14.9z"/>
		<rect x="12.7" y="20.5" class="st0" width="4" height="2.1"/>
		<rect x="14.4" y="4.3" class="st0" width="0.5" height="3"/>
		<rect x="9.1" y="11.7" class="st0" width="11.1" height="8.5"/>
		<ellipse class="st0" cx="14.7" cy="11.9" rx="5.6" ry="5.1"/>
		<circle class="st1" cx="11.6" cy="13.2" r="1.3"/>
		<circle class="st1" cx="17.8" cy="13.2" r="1.3"/>
		<circle class="st0" cx="14.7" cy="3.6" r="1.2"/>
		<path class="st2" d="M14.7,18.7c-1.1,0-2.2-0.2-3.2-0.6c-0.6-0.2-0.8-0.9-0.6-1.4s0.9-0.8,1.4-0.6l0,0c1.5,0.6,3.2,0.6,4.7,0
			c0.6-0.2,1.2,0,1.4,0.6s0,1.2-0.6,1.4C16.8,18.5,15.8,18.7,14.7,18.7z"/>
		<path class="st0" d="M12.2,15.1v4.3L12,19.3l-0.2-0.1v-4.1H12L12.2,15.1z M13.7,15.1h-0.2v4.1l0.2,0.1l0.3,0.1v-4.3H13.7z
			 M15.5,15.1h-0.1v4.1l0.2,0.1l0.3,0.1v-4.3H15.5z M17.2,15.1H17v4.1l0.2,0.1l0.3,0.1v-4.3H17.2z"/>
		<path class="st0" d="M23.8,22.8H5.5c-0.1,0-0.3,0.1-0.3,0.3l0,0v2.5c5.4,4.6,13.4,4.6,18.8,0v-2.5C24,22.9,23.9,22.9,23.8,22.8z"
			/>
		<circle class="st2" cx="17.7" cy="24.4" r="0.6"/>
		<circle class="st2" cx="19.7" cy="24.4" r="0.6"/>
		<circle class="st1" cx="21.6" cy="24.4" r="0.6"/>
		<path class="st0" d="M14.7,29.3C6.6,29.4,0,22.8,0,14.7C0,6.6,6.5,0,14.6,0c8.1,0,14.7,6.5,14.7,14.7c0,0,0,0,0,0
			C29.3,22.8,22.8,29.3,14.7,29.3z M14.7,1.5C7.4,1.5,1.5,7.4,1.5,14.7c0,7.3,5.9,13.2,13.2,13.2c7.3,0,13.2-5.9,13.2-13.2v0
			C27.8,7.4,21.9,1.5,14.7,1.5z"/>
	</g>
	<g>
		<path class="st1" d="M44.1,14.3c-0.9,0-1.8,0.1-2.6,0.3c-0.7,0.1-1.3,0.5-1.7,1v8.1h-4.9V10.1h4.5v2.6c0.4-0.8,1-1.6,1.8-2.1
			c0.7-0.5,1.5-0.7,2.3-0.7c0.2,0,0.4,0,0.6,0L44.1,14.3L44.1,14.3z"/>
		<path class="st1" d="M52.2,23.9c-1.1,0-2.2-0.2-3.2-0.6c-0.9-0.3-1.7-0.9-2.3-1.5c-0.6-0.6-1.1-1.4-1.4-2.2
			c-0.3-0.8-0.5-1.7-0.5-2.6c0-1,0.2-1.9,0.5-2.8c0.3-0.9,0.8-1.6,1.4-2.3c0.7-0.7,1.5-1.2,2.3-1.6c2.1-0.8,4.4-0.8,6.5,0
			c0.9,0.4,1.7,0.9,2.3,1.6c0.6,0.6,1.1,1.4,1.4,2.3c0.3,0.9,0.5,1.8,0.5,2.7c0,0.3,0,0.5,0,0.8s-0.1,0.5-0.1,0.7H50
			c0,0.6,0.3,1.2,0.8,1.6c0.5,0.3,1,0.5,1.6,0.5c0.5,0,1-0.1,1.5-0.4c0.4-0.2,0.8-0.6,1-1l4.2,1.2c-0.6,1.1-1.5,2-2.6,2.7
			C55.2,23.7,53.7,24,52.2,23.9z M54.4,15.4c-0.1-0.6-0.3-1.1-0.7-1.6c-0.9-0.8-2.2-0.8-3.1,0c-0.4,0.4-0.7,1-0.7,1.6H54.4
			L54.4,15.4z"/>
		<path class="st1" d="M66.8,23.9c-1.2,0-2.4-0.2-3.5-0.6c-1.1-0.4-2.1-0.9-2.9-1.7l1.7-3c0.8,0.5,1.6,1,2.5,1.3
			c0.7,0.3,1.4,0.5,2.2,0.5c0.7,0,1-0.2,1-0.6c0-0.3-0.2-0.5-0.4-0.6c-0.5-0.3-1-0.5-1.6-0.6c-0.8-0.2-1.6-0.5-2.4-0.8
			c-0.6-0.2-1.1-0.5-1.6-0.9c-0.4-0.3-0.7-0.6-0.9-1c-0.2-0.4-0.3-0.9-0.3-1.4c0-0.7,0.1-1.3,0.4-1.9c0.3-0.6,0.7-1.1,1.2-1.5
			c0.5-0.4,1.1-0.8,1.8-1c0.7-0.2,1.5-0.4,2.2-0.3c1,0,1.9,0.1,2.9,0.4c1,0.3,2,0.9,2.7,1.6l-1.9,3c-0.7-0.5-1.4-0.9-2.1-1.2
			c-0.5-0.2-1.1-0.3-1.6-0.4c-0.3,0-0.5,0-0.7,0.2c-0.2,0.1-0.3,0.3-0.3,0.5c0,0.3,0.2,0.5,0.4,0.6c0.5,0.3,1.1,0.4,1.6,0.6
			c0.9,0.2,1.7,0.5,2.5,0.8c0.6,0.2,1.1,0.5,1.6,0.9c0.4,0.3,0.7,0.7,0.9,1.1c0.2,0.5,0.3,1,0.3,1.5c0,0.7-0.1,1.3-0.4,1.9
			c-0.3,0.6-0.6,1-1.1,1.4c-0.5,0.4-1.1,0.7-1.8,0.9C68.4,23.9,67.6,24,66.8,23.9z"/>
		<path class="st1" d="M78.3,23.9c-1.2,0.1-2.4-0.4-3.2-1.3c-0.8-1.1-1.2-2.4-1.1-3.7v-9h4.9v7.9c0,0.5,0.1,1,0.4,1.4
			c0.3,0.3,0.7,0.5,1.1,0.5c0.4,0,0.8-0.1,1.2-0.3c0.5-0.3,0.9-0.7,1.2-1.1v-8.4h4.9v8.2c0,0.3,0,0.7,0.2,1c0.2,0.2,0.5,0.3,0.7,0.3
			v4.2C88,23.9,87.3,24,86.6,24c-1.7,0-2.7-0.6-2.9-1.9l-0.1-0.5c-0.6,0.8-1.4,1.4-2.3,1.8C80.3,23.8,79.3,24,78.3,23.9z"/>
		<path class="st1" d="M112.8,23.7h-4.9V16c0-0.5-0.1-1-0.4-1.5c-0.2-0.3-0.6-0.5-1-0.5c-0.5,0-0.9,0.2-1.3,0.6
			c-0.5,0.4-0.8,0.9-1,1.4v7.7h-4.9V16c0-0.5-0.1-1-0.4-1.5c-0.2-0.3-0.6-0.5-1-0.5c-0.5,0-0.9,0.2-1.3,0.6c-0.5,0.4-0.8,0.9-1,1.4
			v7.7h-4.9V10.1h4.5v2c0.5-0.7,1.2-1.3,2-1.7c0.9-0.4,2-0.6,3-0.6c0.5,0,1,0.1,1.5,0.2c0.4,0.1,0.8,0.3,1.1,0.5
			c0.3,0.2,0.5,0.5,0.7,0.8c0.2,0.3,0.3,0.6,0.4,0.9c0.5-0.8,1.2-1.4,2-1.7c0.9-0.4,1.9-0.6,2.9-0.6c0.7,0,1.5,0.1,2.1,0.5
			c0.5,0.3,0.9,0.7,1.2,1.3c0.3,0.5,0.5,1,0.5,1.6c0.1,0.5,0.1,1,0.1,1.6L112.8,23.7L112.8,23.7z"/>
		<path class="st1" d="M121.9,23.9c-1.1,0-2.2-0.2-3.2-0.6c-0.9-0.3-1.7-0.8-2.4-1.4c-0.6-0.6-1.1-1.4-1.4-2.2
			c-0.3-0.8-0.5-1.7-0.5-2.6c0-1,0.2-1.9,0.5-2.8c0.3-0.9,0.8-1.7,1.5-2.3c0.7-0.7,1.5-1.2,2.3-1.6c2.1-0.8,4.4-0.8,6.5,0
			c0.9,0.4,1.7,0.9,2.3,1.6c0.6,0.6,1.1,1.4,1.4,2.3c0.3,0.9,0.5,1.8,0.5,2.7c0,0.3,0,0.5,0,0.8c0,0.3-0.1,0.5-0.1,0.7h-9.6
			c0,0.6,0.3,1.2,0.8,1.6c0.5,0.3,1,0.5,1.6,0.5c0.5,0,1-0.1,1.5-0.4c0.4-0.2,0.8-0.6,1-1l4.2,1.2c-0.6,1.1-1.5,2-2.6,2.7
			C124.9,23.7,123.4,24,121.9,23.9z M124.1,15.4c-0.1-0.6-0.3-1.1-0.7-1.6c-0.9-0.8-2.2-0.8-3.1,0c-0.4,0.4-0.7,1-0.7,1.6H124.1
			L124.1,15.4z"/>
		<path class="st0" d="M144.7,23.7h-4.9V16c0-0.5-0.1-1.1-0.5-1.5c-0.3-0.3-0.7-0.5-1-0.5c-0.5,0-1,0.2-1.3,0.6
			c-0.5,0.4-0.8,0.9-1,1.4v7.7H131V10.1h4.5v2c0.5-0.7,1.2-1.3,2-1.7c1-0.4,2-0.6,3.1-0.6c0.8,0,1.5,0.1,2.2,0.5
			c0.5,0.3,0.9,0.7,1.2,1.3c0.3,0.5,0.5,1,0.6,1.6c0.1,0.5,0.1,1,0.1,1.6L144.7,23.7L144.7,23.7z"/>
		<path class="st0" d="M153.8,23.9c-1.1,0-2.2-0.2-3.2-0.6c-0.9-0.3-1.7-0.8-2.3-1.4c-0.6-0.6-1.1-1.4-1.4-2.2
			c-0.3-0.8-0.5-1.7-0.5-2.6c0-1,0.2-1.9,0.5-2.8c0.3-0.9,0.8-1.6,1.4-2.3c0.7-0.7,1.5-1.2,2.3-1.6c2.1-0.8,4.4-0.8,6.5,0
			c0.9,0.3,1.7,0.9,2.3,1.5c0.6,0.6,1.1,1.4,1.4,2.3c0.3,0.9,0.5,1.8,0.5,2.7c0,0.3,0,0.5,0,0.8s-0.1,0.5-0.1,0.7h-9.6
			c0,0.6,0.3,1.2,0.8,1.6c0.5,0.3,1,0.5,1.6,0.5c0.5,0,1-0.1,1.5-0.4c0.4-0.2,0.8-0.6,1-1l4.2,1.2c-0.6,1.1-1.5,2-2.6,2.7
			C156.8,23.7,155.3,24,153.8,23.9z M156,15.4c-0.1-0.6-0.3-1.1-0.7-1.6c-0.9-0.8-2.2-0.8-3.1,0c-0.4,0.4-0.7,1-0.7,1.6H156
			L156,15.4z"/>
		<path class="st0" d="M172.2,14.3c-0.9,0-1.8,0.1-2.6,0.3c-0.7,0.1-1.3,0.5-1.7,1v8.1h-4.9V10.1h4.5v2.6c0.4-0.8,1-1.6,1.8-2.1
			c0.7-0.5,1.5-0.7,2.3-0.7c0.2,0,0.4,0,0.6,0L172.2,14.3L172.2,14.3z"/>
		<path class="st0" d="M179.3,23.9c-0.9,0-1.8-0.2-2.6-0.5c-0.8-0.3-1.4-0.8-2-1.5c-0.6-0.7-1-1.4-1.3-2.3c-0.3-0.9-0.5-1.9-0.5-2.9
			c0-1,0.1-1.9,0.4-2.8c0.3-0.8,0.7-1.6,1.2-2.2c0.5-0.6,1.2-1.1,1.9-1.5c0.8-0.4,1.6-0.5,2.4-0.5c0.8,0,1.7,0.2,2.4,0.6
			c0.7,0.4,1.3,1,1.7,1.7V4.7h4.9v13.5c0,0.3,0,0.7,0.2,1c0.2,0.2,0.5,0.3,0.7,0.3v4.2c-0.7,0.2-1.4,0.2-2.1,0.3
			c-1.7,0-2.7-0.6-2.9-1.9l-0.1-0.5c-0.4,0.8-1.1,1.4-1.9,1.8C181.1,23.8,180.2,24,179.3,23.9z M180.7,19.8c1,0,1.8-0.6,2.3-1.4
			v-2.4c-0.2-0.6-0.6-1.1-1.1-1.5c-0.4-0.4-0.9-0.6-1.5-0.6c-0.3,0-0.7,0.1-1,0.2c-0.3,0.2-0.6,0.4-0.8,0.6
			c-0.5,0.6-0.7,1.4-0.7,2.1c0,0.8,0.2,1.5,0.7,2.1C179.2,19.6,180,19.9,180.7,19.8L180.7,19.8z"/>
	</g>
</g>
</svg>
